<svg width="2187" height="589" viewBox="0 0 2187 589" fill="none" xmlns="http://www.w3.org/2000/svg">
<path d="M307 100C307 44.7715 351.772 0 407 0H453C508.228 0 553 44.7715 553 100V265H307V100Z" fill="#04A7C3"/>
<path d="M268 101C268 45.7715 312.772 1 368 1H497C552.228 1 597 45.7715 597 101V267H268V101Z" fill="#04A7C3"/>
<path d="M100 573C44.7715 573 0 528.228 0 473L0 356C0 300.772 44.7715 256 100 256H268V573H100Z" fill="#04A7C3"/>
<rect x="268" y="256" width="329" height="317" fill="#152545"/>
<g filter="url(#filter0_di_0_1)">
<ellipse cx="428.589" cy="414.948" rx="147.513" ry="142.508" fill="#04A7C3"/>
</g>
<rect x="396.52" y="334.402" width="64.1342" height="161.094" rx="1.057" fill="white"/>
<rect x="511.967" y="383.969" width="61.9599" height="166.754" rx="1.057" transform="rotate(90 511.967 383.969)" fill="white"/>
<path d="M1067 363.6C1080.33 363.867 1092.87 370.267 1104.6 382.8C1116.6 395.067 1122.6 409.733 1122.6 426.8C1122.6 442.8 1117.27 456.933 1106.6 469.2C1096.2 481.2 1083 488.133 1067 490H1003.4V275.2C1003.4 264.267 999.533 254.933 991.8 247.2C984.067 239.2 974.6 235.2 963.4 235.2C952.467 235.2 943.133 239.2 935.4 247.2C927.667 254.933 923.8 264.267 923.8 275.2V490H860.2V275.2C860.2 264.267 856.333 254.933 848.6 247.2C840.867 239.2 831.4 235.2 820.2 235.2C809.267 235.2 799.933 239.2 792.2 247.2C784.467 254.933 780.6 264.267 780.6 275.2V490H717V275.2C717 246.667 727.133 222.4 747.4 202.4C767.667 182.133 791.933 172 820.2 172C847.933 172 871.8 181.6 891.8 200.8C912.067 181.6 935.933 172 963.4 172C991.933 172 1016.33 182.133 1036.6 202.4C1056.87 222.4 1067 246.667 1067 275.2V363.6ZM1059.8 443.6C1064.6 443.6 1068.73 441.867 1072.2 438.4C1075.93 434.933 1077.8 430.667 1077.8 425.6C1077.8 420.8 1075.93 416.667 1072.2 413.2C1068.73 409.467 1064.6 407.6 1059.8 407.6C1054.73 407.6 1050.47 409.467 1047 413.2C1043.53 416.667 1041.8 420.8 1041.8 425.6C1041.8 430.667 1043.53 434.933 1047 438.4C1050.47 441.867 1054.73 443.6 1059.8 443.6ZM1364.03 171.6V235.2H1204.43V313.6H1309.63V490H1246.03V370.8H1140.83V172L1364.03 171.6ZM1456.88 427.6L1628.08 428V490H1388.88V171.2H1456.48L1456.88 427.6ZM1716.25 490H1648.25V171.2H1715.85L1716.25 490ZM1854.18 234.8C1837.91 234.8 1824.31 241.067 1813.38 253.6C1802.71 266.133 1797.38 280.667 1797.38 297.2V490.4H1734.58V297.2C1734.58 263.333 1745.91 234.133 1768.58 209.6C1792.04 184.267 1820.58 171.6 1854.18 171.6C1887.78 171.6 1916.31 184.267 1939.78 209.6C1962.44 234.133 1973.78 263.333 1973.78 297.2V490.4H1910.98V297.2C1910.98 280.667 1905.51 266.133 1894.58 253.6C1883.91 241.067 1870.44 234.8 1854.18 234.8ZM2056.77 286.4L2117.17 172H2184.77L2089.57 355.6L2186.37 489.6H2118.77L2055.97 407.2L2056.77 490H1993.17V172H2056.77V286.4Z" fill="#05ADCA" fill-opacity="0.862745"/>
<defs>
<filter id="filter0_di_0_1" x="255.414" y="252.181" width="346.35" height="336.339" filterUnits="userSpaceOnUse" color-interpolation-filters="sRGB">
<feFlood flood-opacity="0" result="BackgroundImageFix"/>
<feColorMatrix in="SourceAlpha" type="matrix" values="0 0 0 0 0 0 0 0 0 0 0 0 0 0 0 0 0 0 127 0" result="hardAlpha"/>
<feOffset dy="5.40245"/>
<feGaussianBlur stdDeviation="12.8308"/>
<feComposite in2="hardAlpha" operator="out"/>
<feColorMatrix type="matrix" values="0 0 0 0 0.0862745 0 0 0 0 0.470588 0 0 0 0 0.94902 0 0 0 0.2 0"/>
<feBlend mode="normal" in2="BackgroundImageFix" result="effect1_dropShadow_0_1"/>
<feBlend mode="normal" in="SourceGraphic" in2="effect1_dropShadow_0_1" result="shape"/>
<feColorMatrix in="SourceAlpha" type="matrix" values="0 0 0 0 0 0 0 0 0 0 0 0 0 0 0 0 0 0 127 0" result="hardAlpha"/>
<feOffset dy="5.40245"/>
<feGaussianBlur stdDeviation="2.70123"/>
<feComposite in2="hardAlpha" operator="arithmetic" k2="-1" k3="1"/>
<feColorMatrix type="matrix" values="0 0 0 0 0 0 0 0 0 0 0 0 0 0 0 0 0 0 0.12 0"/>
<feBlend mode="normal" in2="shape" result="effect2_innerShadow_0_1"/>
</filter>
</defs>
</svg>
