<svg width="1440" height="313" viewBox="0 0 1440 313" fill="none" xmlns="http://www.w3.org/2000/svg">
<path d="M0 0H1440V303C1440 308.523 1435.52 313 1430 313H9.99996C4.47711 313 0 308.523 0 303V0Z" fill="url(#paint0_linear_4_108)"/>
<path d="M535.017 102.375L540.718 105.225C541.767 105.684 542.909 105.89 544.053 105.828C545.196 105.766 546.309 105.438 547.303 104.869L552.69 101.363C553.617 100.69 554.372 99.8068 554.892 98.7862C555.412 97.7656 555.684 96.6362 555.683 95.4905L555.341 89.0625C555.217 87.9261 554.827 86.8348 554.203 85.8767C553.579 84.9186 552.739 84.1205 551.75 83.5467L546.048 80.6248C545.001 80.1611 543.859 79.9504 542.715 80.0098C541.571 80.0693 540.457 80.3971 539.464 80.9669L534.076 84.4731C533.151 85.1477 532.397 86.0309 531.877 87.0513C531.357 88.0715 531.085 89.2002 531.083 90.3453L531.425 96.7733C531.536 97.9252 531.919 99.0341 532.544 100.008C533.168 100.982 534.016 101.794 535.017 102.375Z" fill="#F2FBFC"/>
<path d="M569.409 110.699L563.707 107.777C562.661 107.319 561.521 107.112 560.38 107.174C559.239 107.236 558.128 107.564 557.137 108.133L551.692 111.639C550.77 112.317 550.019 113.201 549.5 114.221C548.98 115.24 548.706 116.367 548.699 117.511L549.041 123.939C549.166 125.076 549.556 126.167 550.18 127.125C550.804 128.083 551.644 128.882 552.633 129.455L558.334 132.306C559.379 132.769 560.519 132.98 561.66 132.921C562.802 132.861 563.914 132.533 564.905 131.964L570.306 128.458C571.229 127.777 571.98 126.89 572.499 125.868C573.019 124.847 573.293 123.718 573.3 122.571L572.957 116.157C572.827 115.036 572.438 113.959 571.823 113.012C571.207 112.065 570.381 111.273 569.409 110.699Z" fill="#F2FBFC"/>
<path d="M586.997 137.808L581.296 134.957C580.248 134.493 579.106 134.282 577.962 134.342C576.818 134.401 575.704 134.729 574.711 135.299L569.323 138.805C568.399 139.481 567.647 140.365 567.128 141.385C566.608 142.405 566.334 143.533 566.33 144.677L566.672 151.105C566.809 152.224 567.201 153.295 567.819 154.237C568.437 155.179 569.264 155.965 570.235 156.536L575.937 159.386C576.986 159.845 578.128 160.051 579.271 159.989C580.415 159.927 581.528 159.599 582.521 159.03L587.923 155.524C588.846 154.848 589.597 153.964 590.114 152.943C590.632 151.923 590.901 150.796 590.902 149.652L590.603 143.338C590.48 142.197 590.089 141.102 589.462 140.14C588.836 139.18 587.991 138.38 586.997 137.808Z" fill="#F2FBFC"/>
<path d="M544.994 121.844L544.723 116.841C544.73 115.697 545.004 114.57 545.524 113.55C546.043 112.531 546.794 111.647 547.716 110.969L558.221 104.142C559.212 103.573 560.323 103.245 561.464 103.183C562.605 103.121 563.744 103.327 564.791 103.786L569.267 106.066C570.314 106.53 571.456 106.741 572.6 106.681C573.744 106.622 574.858 106.294 575.851 105.724L581.239 102.203C582.164 101.528 582.916 100.645 583.436 99.6246C583.956 98.6045 584.229 97.4764 584.232 96.3313L583.89 89.9176C583.767 88.7786 583.378 87.6844 582.754 86.7238C582.13 85.763 581.289 84.9627 580.298 84.3875L574.597 81.4657C573.548 81.0074 572.406 80.8009 571.262 80.8628C570.119 80.9246 569.006 81.2532 568.012 81.822L562.511 85.2712C561.588 85.9473 560.837 86.8313 560.32 87.8515C559.802 88.8717 559.532 89.9994 559.532 91.1433L559.788 96.1461C559.788 97.2901 559.518 98.4178 559 99.438C558.483 100.458 557.732 101.342 556.81 102.018L546.305 108.845C545.312 109.415 544.198 109.743 543.054 109.803C541.91 109.862 540.768 109.651 539.721 109.187L535.259 106.921C534.212 106.457 533.07 106.247 531.926 106.306C530.782 106.366 529.668 106.693 528.675 107.263L523.287 110.769C522.362 111.444 521.608 112.327 521.088 113.348C520.568 114.368 520.296 115.497 520.294 116.642L520.636 123.07C520.757 124.209 521.146 125.304 521.77 126.265C522.394 127.225 523.236 128.025 524.228 128.6L529.929 131.45C530.978 131.909 532.12 132.115 533.263 132.053C534.407 131.991 535.52 131.663 536.514 131.094L541.901 127.588C542.827 126.936 543.588 126.078 544.125 125.081C544.662 124.084 544.959 122.976 544.994 121.844Z" fill="#F2FBFC"/>
<path d="M601.421 117.027C601.294 115.889 600.903 114.797 600.279 113.837C599.656 112.876 598.817 112.075 597.829 111.497L592.128 108.646C591.078 108.189 589.937 107.983 588.793 108.045C587.65 108.107 586.537 108.435 585.543 109.002L580.156 112.509C579.232 113.185 578.48 114.068 577.96 115.088C577.44 116.108 577.167 117.236 577.163 118.381L577.433 123.398C577.429 124.542 577.156 125.67 576.636 126.69C576.116 127.71 575.364 128.594 574.44 129.27L563.95 136.083C562.956 136.652 561.843 136.98 560.7 137.042C559.557 137.104 558.415 136.897 557.365 136.439L552.89 134.159C551.843 133.7 550.703 133.494 549.562 133.556C548.421 133.618 547.311 133.946 546.319 134.515L540.875 138.007C539.953 138.685 539.202 139.568 538.682 140.588C538.162 141.608 537.888 142.735 537.882 143.879L538.224 150.307C538.349 151.443 538.739 152.535 539.362 153.493C539.986 154.451 540.827 155.249 541.816 155.823L547.517 158.745C548.562 159.208 549.701 159.419 550.843 159.36C551.985 159.3 553.096 158.972 554.087 158.402L559.489 154.896C560.41 154.218 561.161 153.334 561.68 152.314C562.2 151.295 562.474 150.168 562.482 149.024L562.211 144.007C562.215 142.862 562.487 141.734 563.007 140.714C563.527 139.694 564.28 138.81 565.204 138.135L575.694 131.308C576.688 130.738 577.802 130.41 578.946 130.351C580.09 130.291 581.232 130.502 582.279 130.966L586.74 133.232C587.788 133.696 588.93 133.907 590.074 133.847C591.218 133.788 592.331 133.46 593.325 132.89L598.727 129.384C599.649 128.707 600.399 127.823 600.916 126.803C601.434 125.783 601.704 124.655 601.706 123.512L601.421 117.027Z" fill="#F2FBFC"/>
<path d="M676.042 139.5C675.53 139.5 675.274 139.244 675.274 138.732V104.364H664.266C663.754 104.364 663.498 104.108 663.498 103.596V98.348C663.498 97.836 663.754 97.58 664.266 97.58H694.026C694.538 97.58 694.794 97.836 694.794 98.348V103.596C694.794 104.108 694.538 104.364 694.026 104.364H683.018V138.732C683.018 139.244 682.762 139.5 682.25 139.5H676.042ZM709.107 140.268C704.499 140.268 701.043 139.265 698.739 137.26C696.435 135.212 695.283 132.183 695.283 128.172V120.236C695.283 115.969 696.413 112.748 698.675 110.572C700.979 108.353 704.435 107.244 709.043 107.244C713.565 107.244 716.979 108.311 719.283 110.444C721.587 112.577 722.739 115.692 722.739 119.788V124.78C722.739 125.292 722.483 125.548 721.971 125.548H702.771V127.468C702.771 129.815 703.261 131.543 704.243 132.652C705.267 133.719 706.909 134.252 709.171 134.252C710.92 134.252 712.264 133.975 713.203 133.42C714.184 132.865 714.675 132.033 714.675 130.924C714.675 130.412 714.931 130.156 715.443 130.156H721.331C721.8 130.156 722.056 130.391 722.099 130.86C722.227 133.932 721.16 136.279 718.899 137.9C716.68 139.479 713.416 140.268 709.107 140.268ZM702.771 120.428H715.315V120.108C715.315 117.761 714.803 116.033 713.779 114.924C712.755 113.815 711.197 113.26 709.107 113.26C706.931 113.26 705.331 113.836 704.307 114.988C703.283 116.097 702.771 117.825 702.771 120.172V120.428ZM750.852 139.5C750.34 139.5 750.084 139.244 750.084 138.732V119.02C750.084 117.228 749.721 115.905 748.996 115.052C748.271 114.199 747.161 113.772 745.668 113.772C744.175 113.772 742.703 114.22 741.252 115.116C739.844 115.969 738.223 117.313 736.388 119.148L736.132 113.58C737.369 112.257 738.607 111.127 739.844 110.188C741.124 109.249 742.447 108.524 743.812 108.012C745.177 107.5 746.671 107.244 748.292 107.244C751.364 107.244 753.689 108.119 755.268 109.868C756.847 111.575 757.636 114.22 757.636 117.804V138.732C757.636 139.244 757.38 139.5 756.868 139.5H750.852ZM730.756 139.5C730.287 139.5 730.052 139.244 730.052 138.732V116.012C730.052 114.817 729.988 113.559 729.86 112.236C729.775 110.913 729.689 109.804 729.604 108.908C729.519 108.311 729.775 108.012 730.372 108.012H735.748C736.004 108.012 736.196 108.055 736.324 108.14C736.452 108.225 736.537 108.417 736.58 108.716C736.665 109.057 736.751 109.569 736.836 110.252C736.921 110.892 737.007 111.575 737.092 112.3C737.177 113.025 737.22 113.665 737.22 114.22L737.604 116.78V138.732C737.604 139.244 737.348 139.5 736.836 139.5H730.756ZM784.236 139.5C783.98 139.5 783.788 139.436 783.66 139.308C783.574 139.137 783.489 138.924 783.404 138.668C783.318 138.241 783.212 137.516 783.084 136.492C782.956 135.425 782.849 134.444 782.764 133.548L782.316 130.924V118.124C782.316 116.332 781.953 115.073 781.228 114.348C780.502 113.58 779.244 113.196 777.452 113.196C774.209 113.196 772.63 114.369 772.716 116.716C772.716 117.228 772.481 117.484 772.012 117.484H766.252C765.74 117.484 765.462 117.1 765.42 116.332C765.164 113.473 766.124 111.255 768.3 109.676C770.518 108.055 773.676 107.244 777.772 107.244C781.953 107.244 785.004 108.14 786.924 109.932C788.886 111.724 789.868 114.497 789.868 118.252V131.564C789.868 132.929 789.889 134.209 789.932 135.404C790.017 136.599 790.124 137.687 790.252 138.668C790.337 139.223 790.102 139.5 789.548 139.5H784.236ZM772.012 140.268C769.452 140.268 767.489 139.5 766.124 137.964C764.758 136.428 764.076 134.231 764.076 131.372C764.076 129.153 764.502 127.361 765.356 125.996C766.209 124.588 767.596 123.5 769.516 122.732C771.478 121.921 774.081 121.388 777.324 121.132L783.276 120.62V125.228L777.964 125.676C775.489 125.889 773.782 126.359 772.844 127.084C771.905 127.809 771.436 128.983 771.436 130.604C771.436 131.841 771.692 132.78 772.204 133.42C772.716 134.017 773.505 134.316 774.572 134.316C775.852 134.316 777.153 133.911 778.476 133.1C779.798 132.247 781.462 130.753 783.468 128.62L783.724 133.74C782.444 135.148 781.185 136.343 779.948 137.324C778.71 138.305 777.452 139.031 776.172 139.5C774.892 140.012 773.505 140.268 772.012 140.268ZM808.934 140.268C804.71 140.268 801.595 139.436 799.59 137.772C797.627 136.108 796.71 133.527 796.838 130.028C796.838 129.559 797.094 129.324 797.606 129.324H803.366C803.792 129.324 804.006 129.559 804.006 130.028C804.006 131.564 804.411 132.695 805.222 133.42C806.032 134.145 807.27 134.508 808.934 134.508C810.683 134.508 811.984 134.231 812.838 133.676C813.691 133.121 814.118 132.268 814.118 131.116C814.118 130.305 813.84 129.623 813.286 129.068C812.731 128.471 811.835 127.916 810.598 127.404L803.302 124.332C801.083 123.393 799.483 122.284 798.502 121.004C797.563 119.724 797.094 118.06 797.094 116.012C797.094 113.111 798.032 110.935 799.91 109.484C801.83 107.991 804.774 107.244 808.742 107.244C812.795 107.244 815.846 108.012 817.894 109.548C819.942 111.084 820.966 113.324 820.966 116.268C820.966 116.737 820.71 116.972 820.198 116.972H814.438C814.224 116.972 814.032 116.908 813.862 116.78C813.734 116.609 813.67 116.332 813.67 115.948C813.67 115.009 813.264 114.284 812.454 113.772C811.643 113.217 810.512 112.94 809.062 112.94C807.568 112.94 806.459 113.196 805.734 113.708C805.008 114.22 804.646 114.988 804.646 116.012C804.646 116.78 804.859 117.377 805.286 117.804C805.755 118.231 806.651 118.721 807.974 119.276L815.27 122.348C817.531 123.287 819.152 124.417 820.134 125.74C821.158 127.02 821.67 128.705 821.67 130.796C821.67 133.911 820.582 136.279 818.406 137.9C816.23 139.479 813.072 140.268 808.934 140.268ZM838.309 140.268C834.085 140.268 830.97 139.436 828.965 137.772C827.002 136.108 826.085 133.527 826.213 130.028C826.213 129.559 826.469 129.324 826.981 129.324H832.741C833.167 129.324 833.381 129.559 833.381 130.028C833.381 131.564 833.786 132.695 834.597 133.42C835.407 134.145 836.645 134.508 838.309 134.508C840.058 134.508 841.359 134.231 842.213 133.676C843.066 133.121 843.493 132.268 843.493 131.116C843.493 130.305 843.215 129.623 842.661 129.068C842.106 128.471 841.21 127.916 839.973 127.404L832.677 124.332C830.458 123.393 828.858 122.284 827.877 121.004C826.938 119.724 826.469 118.06 826.469 116.012C826.469 113.111 827.407 110.935 829.285 109.484C831.205 107.991 834.149 107.244 838.117 107.244C842.17 107.244 845.221 108.012 847.269 109.548C849.317 111.084 850.341 113.324 850.341 116.268C850.341 116.737 850.085 116.972 849.573 116.972H843.813C843.599 116.972 843.407 116.908 843.237 116.78C843.109 116.609 843.045 116.332 843.045 115.948C843.045 115.009 842.639 114.284 841.829 113.772C841.018 113.217 839.887 112.94 838.437 112.94C836.943 112.94 835.834 113.196 835.109 113.708C834.383 114.22 834.021 114.988 834.021 116.012C834.021 116.78 834.234 117.377 834.661 117.804C835.13 118.231 836.026 118.721 837.349 119.276L844.645 122.348C846.906 123.287 848.527 124.417 849.509 125.74C850.533 127.02 851.045 128.705 851.045 130.796C851.045 133.911 849.957 136.279 847.781 137.9C845.605 139.479 842.447 140.268 838.309 140.268ZM858.194 139.5C857.724 139.5 857.49 139.244 857.49 138.732V108.78C857.49 108.268 857.724 108.012 858.194 108.012H864.274C864.786 108.012 865.042 108.268 865.042 108.78V138.732C865.042 139.244 864.786 139.5 864.274 139.5H858.194ZM861.266 103.468C859.815 103.468 858.706 103.084 857.938 102.316C857.212 101.548 856.85 100.567 856.85 99.372V98.412C856.85 97.1747 857.212 96.1933 857.938 95.468C858.706 94.7 859.815 94.316 861.266 94.316C862.716 94.316 863.804 94.7 864.53 95.468C865.255 96.1933 865.618 97.1747 865.618 98.412V99.372C865.618 100.567 865.255 101.548 864.53 102.316C863.804 103.084 862.716 103.468 861.266 103.468ZM884.121 140.268C879.897 140.268 876.782 139.436 874.777 137.772C872.814 136.108 871.897 133.527 872.025 130.028C872.025 129.559 872.281 129.324 872.793 129.324H878.553C878.98 129.324 879.193 129.559 879.193 130.028C879.193 131.564 879.598 132.695 880.409 133.42C881.22 134.145 882.457 134.508 884.121 134.508C885.87 134.508 887.172 134.231 888.025 133.676C888.878 133.121 889.305 132.268 889.305 131.116C889.305 130.305 889.028 129.623 888.473 129.068C887.918 128.471 887.022 127.916 885.785 127.404L878.489 124.332C876.27 123.393 874.67 122.284 873.689 121.004C872.75 119.724 872.281 118.06 872.281 116.012C872.281 113.111 873.22 110.935 875.097 109.484C877.017 107.991 879.961 107.244 883.929 107.244C887.982 107.244 891.033 108.012 893.081 109.548C895.129 111.084 896.153 113.324 896.153 116.268C896.153 116.737 895.897 116.972 895.385 116.972H889.625C889.412 116.972 889.22 116.908 889.049 116.78C888.921 116.609 888.857 116.332 888.857 115.948C888.857 115.009 888.452 114.284 887.641 113.772C886.83 113.217 885.7 112.94 884.249 112.94C882.756 112.94 881.646 113.196 880.921 113.708C880.196 114.22 879.833 114.988 879.833 116.012C879.833 116.78 880.046 117.377 880.473 117.804C880.942 118.231 881.838 118.721 883.161 119.276L890.457 122.348C892.718 123.287 894.34 124.417 895.321 125.74C896.345 127.02 896.857 128.705 896.857 130.796C896.857 133.911 895.769 136.279 893.593 137.9C891.417 139.479 888.26 140.268 884.121 140.268ZM915.781 140.268C913.306 140.268 911.322 139.884 909.829 139.116C908.378 138.348 907.311 137.153 906.629 135.532C905.989 133.911 905.669 131.841 905.669 129.324V114.348H900.997C900.485 114.348 900.229 114.092 900.229 113.58V108.78C900.229 108.268 900.485 108.012 900.997 108.012H905.925L906.757 100.332C906.842 99.8627 907.119 99.628 907.589 99.628H912.453C912.965 99.628 913.221 99.884 913.221 100.396V108.012H921.989C922.501 108.012 922.757 108.268 922.757 108.78V113.58C922.757 114.092 922.501 114.348 921.989 114.348H913.221V128.94C913.221 130.647 913.541 131.884 914.181 132.652C914.821 133.42 915.887 133.804 917.381 133.804C918.149 133.804 918.917 133.719 919.685 133.548C920.495 133.377 921.242 133.143 921.925 132.844C922.181 132.759 922.394 132.78 922.565 132.908C922.735 132.993 922.821 133.164 922.821 133.42V138.348C922.821 138.775 922.629 139.052 922.245 139.18C921.391 139.521 920.41 139.777 919.301 139.948C918.234 140.161 917.061 140.268 915.781 140.268Z" fill="#F2FBFC"/>
<path d="M311.056 222.432C308.104 222.432 305.86 221.7 304.324 220.236C302.788 218.748 302.02 216.612 302.02 213.828V206.592C302.02 203.808 302.788 201.684 304.324 200.22C305.884 198.732 308.14 197.988 311.092 197.988C313.012 197.988 314.68 198.312 316.096 198.96C317.536 199.608 318.604 200.532 319.3 201.732C320.02 202.932 320.26 204.372 320.02 206.052C319.996 206.172 319.96 206.292 319.912 206.412C319.864 206.508 319.768 206.556 319.624 206.556H316.924C316.66 206.556 316.54 206.424 316.564 206.16C316.636 204.528 316.204 203.268 315.268 202.38C314.356 201.468 312.976 201.012 311.128 201.012C309.304 201.012 307.9 201.492 306.916 202.452C305.932 203.388 305.44 204.768 305.44 206.592V213.828C305.44 215.652 305.932 217.044 306.916 218.004C307.9 218.94 309.304 219.408 311.128 219.408C312.976 219.408 314.392 218.952 315.376 218.04C316.36 217.128 316.756 215.868 316.564 214.26C316.54 213.996 316.66 213.864 316.924 213.864H319.588C319.828 213.864 319.972 214.032 320.02 214.368C320.164 216 319.876 217.416 319.156 218.616C318.46 219.816 317.416 220.752 316.024 221.424C314.632 222.096 312.976 222.432 311.056 222.432ZM331.754 222.432C329.306 222.432 327.434 221.844 326.138 220.668C324.842 219.468 324.194 217.656 324.194 215.232V211.164C324.194 208.74 324.83 206.94 326.102 205.764C327.398 204.564 329.282 203.964 331.754 203.964C334.226 203.964 336.11 204.564 337.406 205.764C338.702 206.94 339.35 208.74 339.35 211.164V215.232C339.35 217.656 338.702 219.468 337.406 220.668C336.134 221.844 334.25 222.432 331.754 222.432ZM331.754 219.444C333.218 219.444 334.274 219.072 334.922 218.328C335.594 217.584 335.93 216.444 335.93 214.908V211.452C335.93 209.94 335.594 208.812 334.922 208.068C334.274 207.324 333.218 206.952 331.754 206.952C330.29 206.952 329.234 207.324 328.586 208.068C327.938 208.812 327.614 209.94 327.614 211.452V214.908C327.614 216.444 327.938 217.584 328.586 218.328C329.234 219.072 330.29 219.444 331.754 219.444ZM352.205 222.432C351.317 222.432 350.381 222.312 349.397 222.072C348.413 221.832 347.621 221.52 347.021 221.136L346.913 218.292C347.585 218.676 348.317 218.976 349.109 219.192C349.925 219.384 350.681 219.48 351.377 219.48C352.697 219.48 353.657 219.096 354.257 218.328C354.881 217.536 355.193 216.36 355.193 214.8V210.912C355.193 209.544 354.953 208.548 354.473 207.924C354.017 207.276 353.309 206.952 352.349 206.952C351.533 206.952 350.705 207.192 349.865 207.672C349.049 208.152 348.005 208.98 346.733 210.156L346.661 207.168C347.453 206.448 348.197 205.848 348.893 205.368C349.589 204.888 350.285 204.54 350.981 204.324C351.701 204.084 352.457 203.964 353.249 203.964C355.025 203.964 356.357 204.504 357.245 205.584C358.157 206.664 358.613 208.32 358.613 210.552V215.196C358.613 217.548 358.061 219.348 356.957 220.596C355.877 221.82 354.293 222.432 352.205 222.432ZM344.393 228.66C344.153 228.66 344.033 228.528 344.033 228.264V208.536C344.033 207.96 344.009 207.336 343.961 206.664C343.913 205.992 343.853 205.38 343.781 204.828C343.757 204.54 343.877 204.396 344.141 204.396H346.589C346.853 204.396 346.997 204.516 347.021 204.756C347.069 204.924 347.117 205.164 347.165 205.476C347.213 205.788 347.249 206.1 347.273 206.412C347.297 206.7 347.297 206.916 347.273 207.06L347.453 208.932V228.264C347.453 228.528 347.321 228.66 347.057 228.66H344.393ZM365.645 228.66C365.357 228.66 365.273 228.504 365.393 228.192L367.913 221.82L361.289 204.828C361.169 204.54 361.253 204.396 361.541 204.396H364.457C364.649 204.396 364.781 204.492 364.853 204.684L367.913 213C368.201 213.744 368.477 214.524 368.741 215.34C369.005 216.132 369.257 216.924 369.497 217.716H369.569C369.809 216.924 370.073 216.132 370.361 215.34C370.649 214.548 370.925 213.768 371.189 213L374.213 204.684C374.285 204.492 374.441 204.396 374.681 204.396H377.453C377.573 204.396 377.657 204.444 377.705 204.54C377.777 204.612 377.789 204.708 377.741 204.828L368.705 228.372C368.633 228.564 368.501 228.66 368.309 228.66H365.645ZM381.483 222C381.243 222 381.123 221.868 381.123 221.604V208.716C381.123 208.02 381.099 207.36 381.051 206.736C381.027 206.088 380.967 205.44 380.871 204.792C380.823 204.528 380.943 204.396 381.231 204.396H383.679C383.799 204.396 383.895 204.42 383.967 204.468C384.039 204.516 384.087 204.6 384.111 204.72C384.207 205.176 384.279 205.692 384.327 206.268C384.375 206.844 384.399 207.336 384.399 207.744L384.543 209.724V221.604C384.543 221.868 384.411 222 384.147 222H381.483ZM384.147 210.948L384.003 207.78C384.507 207.036 385.083 206.388 385.731 205.836C386.403 205.26 387.075 204.804 387.747 204.468C388.419 204.132 389.043 203.964 389.619 203.964C390.051 203.964 390.375 204 390.591 204.072C390.711 204.096 390.783 204.144 390.807 204.216C390.855 204.264 390.891 204.348 390.915 204.468C390.963 204.996 390.975 205.548 390.951 206.124C390.951 206.676 390.915 207.204 390.843 207.708C390.819 207.852 390.759 207.948 390.663 207.996C390.591 208.044 390.483 208.056 390.339 208.032C390.171 207.984 389.979 207.948 389.763 207.924C389.547 207.9 389.319 207.888 389.079 207.888C388.503 207.888 387.915 208.02 387.315 208.284C386.739 208.524 386.175 208.872 385.623 209.328C385.095 209.784 384.603 210.324 384.147 210.948ZM394.421 222C394.181 222 394.061 221.868 394.061 221.604V204.756C394.061 204.516 394.181 204.396 394.421 204.396H397.085C397.349 204.396 397.481 204.516 397.481 204.756V221.604C397.481 221.868 397.349 222 397.085 222H394.421ZM395.753 201.552C395.033 201.552 394.493 201.36 394.133 200.976C393.797 200.592 393.629 200.088 393.629 199.464V199.068C393.629 198.444 393.797 197.94 394.133 197.556C394.493 197.172 395.033 196.98 395.753 196.98C396.497 196.98 397.037 197.172 397.373 197.556C397.709 197.94 397.877 198.444 397.877 199.068V199.464C397.877 200.088 397.709 200.592 397.373 200.976C397.037 201.36 396.497 201.552 395.753 201.552ZM409.227 229.092C406.371 229.092 404.319 228.708 403.071 227.94C401.823 227.196 401.199 226.068 401.199 224.556C401.199 223.596 401.427 222.744 401.883 222C402.339 221.28 403.059 220.692 404.043 220.236L406.707 221.208C406.011 221.424 405.507 221.76 405.195 222.216C404.883 222.696 404.727 223.248 404.727 223.872C404.727 224.784 405.063 225.408 405.735 225.744C406.431 226.104 407.643 226.284 409.371 226.284C411.219 226.284 412.479 226.104 413.151 225.744C413.847 225.384 414.195 224.724 414.195 223.764C414.195 223.116 414.039 222.636 413.727 222.324C413.415 222.012 412.899 221.844 412.179 221.82L405.555 221.424C404.763 221.376 404.055 221.088 403.431 220.56C402.831 220.032 402.531 219.216 402.531 218.112C402.531 217.608 402.603 217.152 402.747 216.744C402.915 216.336 403.167 215.952 403.503 215.592C403.863 215.232 404.331 214.836 404.907 214.404L407.031 215.592C406.527 215.784 406.155 216.036 405.915 216.348C405.699 216.636 405.591 216.972 405.591 217.356C405.591 217.764 405.723 218.052 405.987 218.22C406.251 218.388 406.671 218.496 407.247 218.544L413.187 218.904C414.675 219 415.779 219.456 416.499 220.272C417.219 221.088 417.579 222.288 417.579 223.872C417.579 225.72 416.907 227.052 415.563 227.868C414.243 228.684 412.131 229.092 409.227 229.092ZM409.515 216.312C407.235 216.312 405.543 215.808 404.439 214.8C403.335 213.768 402.783 212.208 402.783 210.12C402.783 208.032 403.335 206.484 404.439 205.476C405.567 204.468 407.295 203.964 409.623 203.964C411.879 203.964 413.547 204.48 414.627 205.512C415.707 206.52 416.247 208.068 416.247 210.156C416.247 212.244 415.707 213.792 414.627 214.8C413.547 215.808 411.843 216.312 409.515 216.312ZM409.515 213.432C410.787 213.432 411.663 213.192 412.143 212.712C412.647 212.208 412.899 211.356 412.899 210.156C412.899 208.932 412.647 208.068 412.143 207.564C411.639 207.06 410.763 206.808 409.515 206.808C408.267 206.808 407.391 207.06 406.887 207.564C406.407 208.068 406.167 208.932 406.167 210.156C406.167 211.356 406.407 212.208 406.887 212.712C407.391 213.192 408.267 213.432 409.515 213.432ZM414.015 205.98L411.351 204.864C411.447 203.76 411.555 202.836 411.675 202.092C411.795 201.324 411.915 200.676 412.035 200.148C412.107 199.86 412.251 199.716 412.467 199.716H414.915C415.203 199.716 415.311 199.848 415.239 200.112C414.999 200.88 414.783 201.696 414.591 202.56C414.423 203.4 414.231 204.54 414.015 205.98ZM433.116 222C432.852 222 432.72 221.868 432.72 221.604V210.264C432.72 209.136 432.492 208.308 432.036 207.78C431.58 207.228 430.884 206.952 429.948 206.952C429.012 206.952 428.076 207.24 427.14 207.816C426.204 208.368 425.196 209.232 424.116 210.408L424.08 207.492C424.848 206.676 425.592 206.016 426.312 205.512C427.032 204.984 427.764 204.6 428.508 204.36C429.252 204.096 430.044 203.964 430.884 203.964C432.612 203.964 433.92 204.468 434.808 205.476C435.696 206.46 436.14 207.948 436.14 209.94V221.604C436.14 221.868 436.02 222 435.78 222H433.116ZM421.632 222C421.392 222 421.272 221.868 421.272 221.604V197.808C421.272 197.544 421.392 197.412 421.632 197.412H424.296C424.56 197.412 424.692 197.544 424.692 197.808V221.604C424.692 221.868 424.56 222 424.296 222H421.632ZM448.035 222.432C446.763 222.432 445.743 222.228 444.975 221.82C444.207 221.388 443.655 220.74 443.319 219.876C442.983 219.012 442.815 217.932 442.815 216.636V207.312H440.079C439.815 207.312 439.683 207.18 439.683 206.916V204.756C439.683 204.516 439.815 204.396 440.079 204.396H442.887L443.319 200.076C443.343 199.812 443.487 199.68 443.751 199.68H445.839C446.079 199.68 446.199 199.812 446.199 200.076L446.235 204.396H451.455C451.719 204.396 451.851 204.516 451.851 204.756V206.916C451.851 207.18 451.719 207.312 451.455 207.312H446.235V216.492C446.235 217.572 446.427 218.34 446.811 218.796C447.195 219.252 447.843 219.48 448.755 219.48C449.235 219.48 449.703 219.432 450.159 219.336C450.639 219.216 451.059 219.072 451.419 218.904C451.563 218.856 451.671 218.856 451.743 218.904C451.839 218.952 451.887 219.048 451.887 219.192V221.388C451.887 221.604 451.779 221.748 451.563 221.82C451.131 221.988 450.615 222.132 450.015 222.252C449.439 222.372 448.779 222.432 448.035 222.432ZM500.694 222C500.43 222 500.298 221.868 500.298 221.604V219.012C500.298 217.884 500.502 216.876 500.91 215.988C501.342 215.076 501.906 214.272 502.602 213.576C503.298 212.88 504.054 212.244 504.87 211.668C505.71 211.068 506.538 210.504 507.354 209.976C508.194 209.448 508.962 208.92 509.658 208.392C510.354 207.864 510.906 207.3 511.314 206.7C511.746 206.076 511.962 205.38 511.962 204.612V203.892C511.962 202.932 511.614 202.212 510.918 201.732C510.222 201.228 509.19 200.976 507.822 200.976C506.478 200.976 505.482 201.276 504.834 201.876C504.186 202.452 503.862 203.28 503.862 204.36C503.862 204.6 503.742 204.72 503.502 204.72H500.874C500.634 204.72 500.514 204.6 500.514 204.36C500.49 202.968 500.766 201.804 501.342 200.868C501.918 199.908 502.77 199.188 503.898 198.708C505.05 198.228 506.466 197.988 508.146 197.988C510.57 197.988 512.382 198.504 513.582 199.536C514.782 200.544 515.382 202.032 515.382 204C515.382 205.248 515.166 206.328 514.734 207.24C514.326 208.128 513.786 208.908 513.114 209.58C512.442 210.252 511.686 210.864 510.846 211.416C510.03 211.944 509.214 212.46 508.398 212.964C507.606 213.444 506.862 213.96 506.166 214.512C505.494 215.064 504.954 215.7 504.546 216.42C504.138 217.116 503.934 217.956 503.934 218.94H514.878C515.142 218.94 515.274 219.072 515.274 219.336V221.604C515.274 221.868 515.142 222 514.878 222H500.694ZM527.981 222.432C525.389 222.432 523.373 221.712 521.933 220.272C520.493 218.808 519.773 216.768 519.773 214.152V206.268C519.773 203.652 520.493 201.624 521.933 200.184C523.373 198.72 525.389 197.988 527.981 197.988C530.573 197.988 532.589 198.72 534.029 200.184C535.469 201.624 536.189 203.652 536.189 206.268V214.152C536.189 216.768 535.469 218.808 534.029 220.272C532.589 221.712 530.573 222.432 527.981 222.432ZM527.981 219.408C529.493 219.408 530.669 218.964 531.509 218.076C532.349 217.188 532.769 215.952 532.769 214.368V206.052C532.769 204.444 532.349 203.208 531.509 202.344C530.669 201.456 529.493 201.012 527.981 201.012C526.469 201.012 525.293 201.456 524.453 202.344C523.613 203.208 523.193 204.444 523.193 206.052V214.368C523.193 215.952 523.613 217.188 524.453 218.076C525.293 218.964 526.469 219.408 527.981 219.408ZM541.264 222C541 222 540.868 221.868 540.868 221.604V219.012C540.868 217.884 541.072 216.876 541.48 215.988C541.912 215.076 542.476 214.272 543.172 213.576C543.868 212.88 544.624 212.244 545.44 211.668C546.28 211.068 547.108 210.504 547.924 209.976C548.764 209.448 549.532 208.92 550.228 208.392C550.924 207.864 551.476 207.3 551.884 206.7C552.316 206.076 552.532 205.38 552.532 204.612V203.892C552.532 202.932 552.184 202.212 551.488 201.732C550.792 201.228 549.76 200.976 548.392 200.976C547.048 200.976 546.052 201.276 545.404 201.876C544.756 202.452 544.432 203.28 544.432 204.36C544.432 204.6 544.312 204.72 544.072 204.72H541.444C541.204 204.72 541.084 204.6 541.084 204.36C541.06 202.968 541.336 201.804 541.912 200.868C542.488 199.908 543.34 199.188 544.468 198.708C545.62 198.228 547.036 197.988 548.716 197.988C551.14 197.988 552.952 198.504 554.152 199.536C555.352 200.544 555.952 202.032 555.952 204C555.952 205.248 555.736 206.328 555.304 207.24C554.896 208.128 554.356 208.908 553.684 209.58C553.012 210.252 552.256 210.864 551.416 211.416C550.6 211.944 549.784 212.46 548.968 212.964C548.176 213.444 547.432 213.96 546.736 214.512C546.064 215.064 545.524 215.7 545.116 216.42C544.708 217.116 544.504 217.956 544.504 218.94H555.448C555.712 218.94 555.844 219.072 555.844 219.336V221.604C555.844 221.868 555.712 222 555.448 222H541.264ZM570.718 222C570.478 222 570.358 221.868 570.358 221.604V217.464H558.478C558.238 217.464 558.118 217.344 558.118 217.104V216.78C558.118 216.636 558.118 216.54 558.118 216.492C558.142 216.42 558.178 216.336 558.226 216.24L567.766 198.708C567.886 198.516 568.042 198.42 568.234 198.42H570.97C571.114 198.42 571.21 198.456 571.258 198.528C571.33 198.6 571.33 198.708 571.258 198.852L562.762 214.404H570.394L570.502 206.7C570.502 206.46 570.622 206.34 570.862 206.34H573.31C573.574 206.34 573.706 206.46 573.706 206.7V214.404H576.334C576.598 214.404 576.73 214.536 576.73 214.8V217.104C576.73 217.344 576.598 217.464 576.334 217.464H573.706V221.604C573.706 221.868 573.574 222 573.31 222H570.718ZM578.99 226.716C578.702 226.716 578.594 226.56 578.666 226.248L580.466 218.184C580.514 217.968 580.646 217.86 580.862 217.86H583.994C584.138 217.86 584.234 217.908 584.282 218.004C584.354 218.1 584.354 218.22 584.282 218.364L581.582 226.464C581.51 226.632 581.39 226.716 581.222 226.716H578.99ZM597.105 222C596.865 222 596.745 221.868 596.745 221.604V198.816C596.745 198.552 596.865 198.42 597.105 198.42H599.805C600.045 198.42 600.165 198.552 600.165 198.816V208.392H611.289V198.816C611.289 198.552 611.409 198.42 611.649 198.42H614.349C614.613 198.42 614.745 198.552 614.745 198.816V221.604C614.745 221.868 614.613 222 614.349 222H611.649C611.409 222 611.289 221.868 611.289 221.604V211.38H600.165V221.604C600.165 221.868 600.045 222 599.805 222H597.105ZM627.132 222.432C624.732 222.432 622.908 221.88 621.66 220.776C620.412 219.672 619.788 218.052 619.788 215.916V211.02C619.788 208.716 620.4 206.964 621.624 205.764C622.872 204.564 624.696 203.964 627.096 203.964C629.496 203.964 631.308 204.552 632.532 205.728C633.78 206.904 634.404 208.608 634.404 210.84V213.648C634.404 213.888 634.284 214.008 634.044 214.008H623.172V215.16C623.172 216.672 623.496 217.776 624.144 218.472C624.792 219.168 625.836 219.516 627.276 219.516C628.356 219.516 629.184 219.348 629.76 219.012C630.36 218.652 630.66 218.124 630.66 217.428C630.66 217.164 630.792 217.032 631.056 217.032H633.72C633.912 217.032 634.032 217.14 634.08 217.356C634.176 218.964 633.6 220.212 632.352 221.1C631.128 221.988 629.388 222.432 627.132 222.432ZM623.172 211.308H631.02V211.128C631.02 209.664 630.696 208.596 630.048 207.924C629.4 207.228 628.44 206.88 627.168 206.88C625.824 206.88 624.816 207.24 624.144 207.96C623.496 208.656 623.172 209.724 623.172 211.164V211.308ZM649.325 222C649.181 222 649.073 221.952 649.001 221.856C648.953 221.76 648.905 221.64 648.857 221.496C648.833 221.304 648.773 220.896 648.677 220.272C648.605 219.648 648.557 219.084 648.533 218.58L648.389 217.176V210.012C648.389 208.86 648.161 208.044 647.705 207.564C647.249 207.084 646.445 206.844 645.293 206.844C643.229 206.844 642.209 207.564 642.233 209.004C642.233 209.268 642.113 209.4 641.873 209.4H639.245C638.981 209.4 638.837 209.172 638.813 208.716C638.693 207.276 639.233 206.124 640.433 205.26C641.633 204.396 643.289 203.964 645.401 203.964C647.585 203.964 649.193 204.456 650.225 205.44C651.281 206.424 651.809 207.936 651.809 209.976V217.608C651.809 218.424 651.821 219.168 651.845 219.84C651.893 220.488 651.953 221.064 652.025 221.568C652.073 221.856 651.953 222 651.665 222H649.325ZM642.413 222.432C641.021 222.432 639.953 222.012 639.209 221.172C638.465 220.308 638.093 219.072 638.093 217.464C638.093 216.216 638.333 215.208 638.813 214.44C639.317 213.648 640.109 213.036 641.189 212.604C642.293 212.148 643.757 211.848 645.581 211.704L648.929 211.416V213.828L645.617 214.116C644.057 214.26 642.977 214.56 642.377 215.016C641.777 215.448 641.477 216.18 641.477 217.212C641.477 217.98 641.633 218.568 641.945 218.976C642.281 219.36 642.773 219.552 643.421 219.552C644.189 219.552 644.981 219.288 645.797 218.76C646.637 218.232 647.717 217.284 649.037 215.916L649.109 218.652C648.293 219.54 647.525 220.26 646.805 220.812C646.085 221.364 645.365 221.772 644.645 222.036C643.949 222.3 643.205 222.432 642.413 222.432ZM657.319 222C657.079 222 656.959 221.868 656.959 221.604V197.808C656.959 197.544 657.079 197.412 657.319 197.412H659.983C660.247 197.412 660.379 197.544 660.379 197.808V221.604C660.379 221.868 660.247 222 659.983 222H657.319ZM671.945 222.432C670.673 222.432 669.653 222.228 668.885 221.82C668.117 221.388 667.565 220.74 667.229 219.876C666.893 219.012 666.725 217.932 666.725 216.636V207.312H663.989C663.725 207.312 663.593 207.18 663.593 206.916V204.756C663.593 204.516 663.725 204.396 663.989 204.396H666.797L667.229 200.076C667.253 199.812 667.397 199.68 667.661 199.68H669.749C669.989 199.68 670.109 199.812 670.109 200.076L670.145 204.396H675.365C675.629 204.396 675.761 204.516 675.761 204.756V206.916C675.761 207.18 675.629 207.312 675.365 207.312H670.145V216.492C670.145 217.572 670.337 218.34 670.721 218.796C671.105 219.252 671.753 219.48 672.665 219.48C673.145 219.48 673.613 219.432 674.069 219.336C674.549 219.216 674.969 219.072 675.329 218.904C675.473 218.856 675.581 218.856 675.653 218.904C675.749 218.952 675.797 219.048 675.797 219.192V221.388C675.797 221.604 675.689 221.748 675.473 221.82C675.041 221.988 674.525 222.132 673.925 222.252C673.349 222.372 672.689 222.432 671.945 222.432ZM691.338 222C691.074 222 690.942 221.868 690.942 221.604V210.264C690.942 209.136 690.714 208.308 690.258 207.78C689.802 207.228 689.106 206.952 688.17 206.952C687.234 206.952 686.298 207.24 685.362 207.816C684.426 208.368 683.418 209.232 682.338 210.408L682.302 207.492C683.07 206.676 683.814 206.016 684.534 205.512C685.254 204.984 685.986 204.6 686.73 204.36C687.474 204.096 688.266 203.964 689.106 203.964C690.834 203.964 692.142 204.468 693.03 205.476C693.918 206.46 694.362 207.948 694.362 209.94V221.604C694.362 221.868 694.242 222 694.002 222H691.338ZM679.854 222C679.614 222 679.494 221.868 679.494 221.604V197.808C679.494 197.544 679.614 197.412 679.854 197.412H682.518C682.782 197.412 682.914 197.544 682.914 197.808V221.604C682.914 221.868 682.782 222 682.518 222H679.854ZM706.553 222.432C704.105 222.432 702.245 221.832 700.973 220.632C699.701 219.408 699.065 217.656 699.065 215.376V211.02C699.065 208.74 699.713 207 701.009 205.8C702.305 204.576 704.177 203.964 706.625 203.964C708.089 203.964 709.337 204.192 710.369 204.648C711.425 205.104 712.229 205.728 712.781 206.52C713.333 207.312 713.609 208.236 713.609 209.292C713.609 209.82 713.477 210.084 713.213 210.084H710.585C710.489 210.084 710.405 210.036 710.333 209.94C710.261 209.844 710.225 209.712 710.225 209.544C710.225 208.704 709.901 208.068 709.253 207.636C708.605 207.18 707.729 206.952 706.625 206.952C705.233 206.952 704.189 207.312 703.493 208.032C702.821 208.728 702.485 209.832 702.485 211.344V215.052C702.485 216.54 702.821 217.644 703.493 218.364C704.189 219.084 705.221 219.444 706.589 219.444C707.717 219.444 708.593 219.204 709.217 218.724C709.865 218.22 710.189 217.608 710.189 216.888C710.189 216.504 710.309 216.312 710.549 216.312H713.177C713.441 216.312 713.573 216.432 713.573 216.672C713.573 218.424 712.973 219.828 711.773 220.884C710.573 221.916 708.833 222.432 706.553 222.432ZM727.969 222C727.825 222 727.717 221.952 727.645 221.856C727.597 221.76 727.549 221.64 727.501 221.496C727.477 221.304 727.417 220.896 727.321 220.272C727.249 219.648 727.201 219.084 727.177 218.58L727.033 217.176V210.012C727.033 208.86 726.805 208.044 726.349 207.564C725.893 207.084 725.089 206.844 723.937 206.844C721.873 206.844 720.853 207.564 720.877 209.004C720.877 209.268 720.757 209.4 720.517 209.4H717.889C717.625 209.4 717.481 209.172 717.457 208.716C717.337 207.276 717.877 206.124 719.077 205.26C720.277 204.396 721.933 203.964 724.045 203.964C726.229 203.964 727.837 204.456 728.869 205.44C729.925 206.424 730.453 207.936 730.453 209.976V217.608C730.453 218.424 730.465 219.168 730.489 219.84C730.537 220.488 730.597 221.064 730.669 221.568C730.717 221.856 730.597 222 730.309 222H727.969ZM721.057 222.432C719.665 222.432 718.597 222.012 717.853 221.172C717.109 220.308 716.737 219.072 716.737 217.464C716.737 216.216 716.977 215.208 717.457 214.44C717.961 213.648 718.753 213.036 719.833 212.604C720.937 212.148 722.401 211.848 724.225 211.704L727.573 211.416V213.828L724.261 214.116C722.701 214.26 721.621 214.56 721.021 215.016C720.421 215.448 720.121 216.18 720.121 217.212C720.121 217.98 720.277 218.568 720.589 218.976C720.925 219.36 721.417 219.552 722.065 219.552C722.833 219.552 723.625 219.288 724.441 218.76C725.281 218.232 726.361 217.284 727.681 215.916L727.753 218.652C726.937 219.54 726.169 220.26 725.449 220.812C724.729 221.364 724.009 221.772 723.289 222.036C722.593 222.3 721.849 222.432 721.057 222.432ZM735.964 222C735.724 222 735.604 221.868 735.604 221.604V208.716C735.604 208.02 735.58 207.36 735.532 206.736C735.508 206.088 735.448 205.44 735.352 204.792C735.304 204.528 735.424 204.396 735.712 204.396H738.16C738.28 204.396 738.376 204.42 738.448 204.468C738.52 204.516 738.568 204.6 738.592 204.72C738.688 205.176 738.76 205.692 738.808 206.268C738.856 206.844 738.88 207.336 738.88 207.744L739.024 209.724V221.604C739.024 221.868 738.892 222 738.628 222H735.964ZM738.628 210.948L738.484 207.78C738.988 207.036 739.564 206.388 740.212 205.836C740.884 205.26 741.556 204.804 742.228 204.468C742.9 204.132 743.524 203.964 744.1 203.964C744.532 203.964 744.856 204 745.072 204.072C745.192 204.096 745.264 204.144 745.288 204.216C745.336 204.264 745.372 204.348 745.396 204.468C745.444 204.996 745.456 205.548 745.432 206.124C745.432 206.676 745.396 207.204 745.324 207.708C745.3 207.852 745.24 207.948 745.144 207.996C745.072 208.044 744.964 208.056 744.82 208.032C744.652 207.984 744.46 207.948 744.244 207.924C744.028 207.9 743.8 207.888 743.56 207.888C742.984 207.888 742.396 208.02 741.796 208.284C741.22 208.524 740.656 208.872 740.104 209.328C739.576 209.784 739.084 210.324 738.628 210.948ZM755.101 222.432C752.701 222.432 750.877 221.88 749.629 220.776C748.381 219.672 747.757 218.052 747.757 215.916V211.02C747.757 208.716 748.369 206.964 749.593 205.764C750.841 204.564 752.665 203.964 755.065 203.964C757.465 203.964 759.277 204.552 760.501 205.728C761.749 206.904 762.373 208.608 762.373 210.84V213.648C762.373 213.888 762.253 214.008 762.013 214.008H751.141V215.16C751.141 216.672 751.465 217.776 752.113 218.472C752.761 219.168 753.805 219.516 755.245 219.516C756.325 219.516 757.153 219.348 757.729 219.012C758.329 218.652 758.629 218.124 758.629 217.428C758.629 217.164 758.761 217.032 759.025 217.032H761.689C761.881 217.032 762.001 217.14 762.049 217.356C762.145 218.964 761.569 220.212 760.321 221.1C759.097 221.988 757.357 222.432 755.101 222.432ZM751.141 211.308H758.989V211.128C758.989 209.664 758.665 208.596 758.017 207.924C757.369 207.228 756.409 206.88 755.137 206.88C753.793 206.88 752.785 207.24 752.113 207.96C751.465 208.656 751.141 209.724 751.141 211.164V211.308ZM772.254 222C771.966 222 771.858 221.856 771.93 221.568L779.85 198.708C779.922 198.516 780.066 198.42 780.282 198.42H783.918C784.158 198.42 784.314 198.516 784.386 198.708L792.378 221.568C792.426 221.712 792.414 221.82 792.342 221.892C792.294 221.964 792.198 222 792.054 222H789.138C788.898 222 788.742 221.904 788.67 221.712L783.522 205.908C783.282 205.188 783.042 204.456 782.802 203.712C782.562 202.968 782.31 202.224 782.046 201.48H782.01C781.794 202.2 781.566 202.932 781.326 203.676C781.086 204.396 780.846 205.116 780.606 205.836L775.494 221.676C775.422 221.892 775.278 222 775.062 222H772.254ZM776.538 216.672L777.294 213.72H786.798L787.59 216.672H776.538ZM795.343 222C795.103 222 794.983 221.868 794.983 221.604V204.756C794.983 204.516 795.103 204.396 795.343 204.396H798.007C798.271 204.396 798.403 204.516 798.403 204.756V221.604C798.403 221.868 798.271 222 798.007 222H795.343ZM796.675 201.552C795.955 201.552 795.415 201.36 795.055 200.976C794.719 200.592 794.551 200.088 794.551 199.464V199.068C794.551 198.444 794.719 197.94 795.055 197.556C795.415 197.172 795.955 196.98 796.675 196.98C797.419 196.98 797.959 197.172 798.295 197.556C798.631 197.94 798.799 198.444 798.799 199.068V199.464C798.799 200.088 798.631 200.592 798.295 200.976C797.959 201.36 797.419 201.552 796.675 201.552ZM808.349 222.432C806.669 222.432 805.385 221.88 804.497 220.776C803.609 219.672 803.165 218.028 803.165 215.844V211.2C803.165 208.872 803.729 207.084 804.857 205.836C806.009 204.588 807.605 203.964 809.645 203.964C810.557 203.964 811.517 204.084 812.525 204.324C813.557 204.564 814.349 204.876 814.901 205.26L815.081 208.14C814.337 207.732 813.533 207.432 812.669 207.24C811.805 207.024 811.037 206.916 810.365 206.916C809.093 206.916 808.145 207.312 807.521 208.104C806.897 208.872 806.585 210.024 806.585 211.56V215.808C806.585 217.008 806.813 217.92 807.269 218.544C807.749 219.144 808.457 219.444 809.393 219.444C809.969 219.444 810.533 219.336 811.085 219.12C811.661 218.88 812.273 218.508 812.921 218.004C813.593 217.476 814.361 216.78 815.225 215.916V218.832C814.433 219.624 813.677 220.296 812.957 220.848C812.237 221.376 811.505 221.772 810.761 222.036C810.017 222.3 809.213 222.432 808.349 222.432ZM815.441 222C815.321 222 815.225 221.976 815.153 221.928C815.081 221.856 815.033 221.748 815.009 221.604C814.961 221.244 814.901 220.788 814.829 220.236C814.757 219.684 814.733 219.228 814.757 218.868L814.541 217.176V197.808C814.541 197.544 814.661 197.412 814.901 197.412H817.565C817.829 197.412 817.961 197.544 817.961 197.808V217.86C817.961 218.22 817.961 218.64 817.961 219.12C817.985 219.576 818.009 220.02 818.033 220.452C818.081 220.884 818.129 221.232 818.177 221.496C818.249 221.832 818.129 222 817.817 222H815.441ZM830.019 222.432C827.619 222.432 825.795 221.88 824.547 220.776C823.299 219.672 822.675 218.052 822.675 215.916V211.02C822.675 208.716 823.287 206.964 824.511 205.764C825.759 204.564 827.583 203.964 829.983 203.964C832.383 203.964 834.195 204.552 835.419 205.728C836.667 206.904 837.291 208.608 837.291 210.84V213.648C837.291 213.888 837.171 214.008 836.931 214.008H826.059V215.16C826.059 216.672 826.383 217.776 827.031 218.472C827.679 219.168 828.723 219.516 830.163 219.516C831.243 219.516 832.071 219.348 832.647 219.012C833.247 218.652 833.547 218.124 833.547 217.428C833.547 217.164 833.679 217.032 833.943 217.032H836.607C836.799 217.032 836.919 217.14 836.967 217.356C837.063 218.964 836.487 220.212 835.239 221.1C834.015 221.988 832.275 222.432 830.019 222.432ZM826.059 211.308H833.907V211.128C833.907 209.664 833.583 208.596 832.935 207.924C832.287 207.228 831.327 206.88 830.055 206.88C828.711 206.88 827.703 207.24 827.031 207.96C826.383 208.656 826.059 209.724 826.059 211.164V211.308ZM843.68 222.432C842.888 222.432 842.312 222.24 841.952 221.856C841.616 221.448 841.448 220.908 841.448 220.236V219.804C841.448 219.156 841.616 218.64 841.952 218.256C842.312 217.848 842.888 217.644 843.68 217.644C844.472 217.644 845.036 217.848 845.372 218.256C845.732 218.64 845.912 219.156 845.912 219.804V220.236C845.912 220.908 845.732 221.448 845.372 221.856C845.036 222.24 844.472 222.432 843.68 222.432ZM855.855 222C855.567 222 855.459 221.856 855.531 221.568L863.451 198.708C863.523 198.516 863.667 198.42 863.883 198.42H867.519C867.759 198.42 867.915 198.516 867.987 198.708L875.979 221.568C876.027 221.712 876.015 221.82 875.943 221.892C875.895 221.964 875.799 222 875.655 222H872.739C872.499 222 872.343 221.904 872.271 221.712L867.123 205.908C866.883 205.188 866.643 204.456 866.403 203.712C866.163 202.968 865.911 202.224 865.647 201.48H865.611C865.395 202.2 865.167 202.932 864.927 203.676C864.687 204.396 864.447 205.116 864.207 205.836L859.095 221.676C859.023 221.892 858.879 222 858.663 222H855.855ZM860.139 216.672L860.895 213.72H870.399L871.191 216.672H860.139ZM879.261 222C879.021 222 878.901 221.868 878.901 221.604V197.808C878.901 197.544 879.021 197.412 879.261 197.412H881.925C882.189 197.412 882.321 197.544 882.321 197.808V221.604C882.321 221.868 882.189 222 881.925 222H879.261ZM887.839 222C887.599 222 887.479 221.868 887.479 221.604V197.808C887.479 197.544 887.599 197.412 887.839 197.412H890.503C890.767 197.412 890.899 197.544 890.899 197.808V221.604C890.899 221.868 890.767 222 890.503 222H887.839ZM903.905 222C903.665 222 903.545 221.868 903.545 221.604V208.716C903.545 208.02 903.521 207.36 903.473 206.736C903.449 206.088 903.389 205.44 903.293 204.792C903.245 204.528 903.365 204.396 903.653 204.396H906.101C906.221 204.396 906.317 204.42 906.389 204.468C906.461 204.516 906.509 204.6 906.533 204.72C906.629 205.176 906.701 205.692 906.749 206.268C906.797 206.844 906.821 207.336 906.821 207.744L906.965 209.724V221.604C906.965 221.868 906.833 222 906.569 222H903.905ZM906.569 210.948L906.425 207.78C906.929 207.036 907.505 206.388 908.153 205.836C908.825 205.26 909.497 204.804 910.169 204.468C910.841 204.132 911.465 203.964 912.041 203.964C912.473 203.964 912.797 204 913.013 204.072C913.133 204.096 913.205 204.144 913.229 204.216C913.277 204.264 913.313 204.348 913.337 204.468C913.385 204.996 913.397 205.548 913.373 206.124C913.373 206.676 913.337 207.204 913.265 207.708C913.241 207.852 913.181 207.948 913.085 207.996C913.013 208.044 912.905 208.056 912.761 208.032C912.593 207.984 912.401 207.948 912.185 207.924C911.969 207.9 911.741 207.888 911.501 207.888C910.925 207.888 910.337 208.02 909.737 208.284C909.161 208.524 908.597 208.872 908.045 209.328C907.517 209.784 907.025 210.324 906.569 210.948ZM916.843 222C916.603 222 916.483 221.868 916.483 221.604V204.756C916.483 204.516 916.603 204.396 916.843 204.396H919.507C919.771 204.396 919.903 204.516 919.903 204.756V221.604C919.903 221.868 919.771 222 919.507 222H916.843ZM918.175 201.552C917.455 201.552 916.915 201.36 916.555 200.976C916.219 200.592 916.051 200.088 916.051 199.464V199.068C916.051 198.444 916.219 197.94 916.555 197.556C916.915 197.172 917.455 196.98 918.175 196.98C918.919 196.98 919.459 197.172 919.795 197.556C920.131 197.94 920.299 198.444 920.299 199.068V199.464C920.299 200.088 920.131 200.592 919.795 200.976C919.459 201.36 918.919 201.552 918.175 201.552ZM931.649 229.092C928.793 229.092 926.741 228.708 925.493 227.94C924.245 227.196 923.621 226.068 923.621 224.556C923.621 223.596 923.849 222.744 924.305 222C924.761 221.28 925.481 220.692 926.465 220.236L929.129 221.208C928.433 221.424 927.929 221.76 927.617 222.216C927.305 222.696 927.149 223.248 927.149 223.872C927.149 224.784 927.485 225.408 928.157 225.744C928.853 226.104 930.065 226.284 931.793 226.284C933.641 226.284 934.901 226.104 935.573 225.744C936.269 225.384 936.617 224.724 936.617 223.764C936.617 223.116 936.461 222.636 936.149 222.324C935.837 222.012 935.321 221.844 934.601 221.82L927.977 221.424C927.185 221.376 926.477 221.088 925.853 220.56C925.253 220.032 924.953 219.216 924.953 218.112C924.953 217.608 925.025 217.152 925.169 216.744C925.337 216.336 925.589 215.952 925.925 215.592C926.285 215.232 926.753 214.836 927.329 214.404L929.453 215.592C928.949 215.784 928.577 216.036 928.337 216.348C928.121 216.636 928.013 216.972 928.013 217.356C928.013 217.764 928.145 218.052 928.409 218.22C928.673 218.388 929.093 218.496 929.669 218.544L935.609 218.904C937.097 219 938.201 219.456 938.921 220.272C939.641 221.088 940.001 222.288 940.001 223.872C940.001 225.72 939.329 227.052 937.985 227.868C936.665 228.684 934.553 229.092 931.649 229.092ZM931.937 216.312C929.657 216.312 927.965 215.808 926.861 214.8C925.757 213.768 925.205 212.208 925.205 210.12C925.205 208.032 925.757 206.484 926.861 205.476C927.989 204.468 929.717 203.964 932.045 203.964C934.301 203.964 935.969 204.48 937.049 205.512C938.129 206.52 938.669 208.068 938.669 210.156C938.669 212.244 938.129 213.792 937.049 214.8C935.969 215.808 934.265 216.312 931.937 216.312ZM931.937 213.432C933.209 213.432 934.085 213.192 934.565 212.712C935.069 212.208 935.321 211.356 935.321 210.156C935.321 208.932 935.069 208.068 934.565 207.564C934.061 207.06 933.185 206.808 931.937 206.808C930.689 206.808 929.813 207.06 929.309 207.564C928.829 208.068 928.589 208.932 928.589 210.156C928.589 211.356 928.829 212.208 929.309 212.712C929.813 213.192 930.689 213.432 931.937 213.432ZM936.437 205.98L933.773 204.864C933.869 203.76 933.977 202.836 934.097 202.092C934.217 201.324 934.337 200.676 934.457 200.148C934.529 199.86 934.673 199.716 934.889 199.716H937.337C937.625 199.716 937.733 199.848 937.661 200.112C937.421 200.88 937.205 201.696 937.013 202.56C936.845 203.4 936.653 204.54 936.437 205.98ZM955.538 222C955.274 222 955.142 221.868 955.142 221.604V210.264C955.142 209.136 954.914 208.308 954.458 207.78C954.002 207.228 953.306 206.952 952.37 206.952C951.434 206.952 950.498 207.24 949.562 207.816C948.626 208.368 947.618 209.232 946.538 210.408L946.502 207.492C947.27 206.676 948.014 206.016 948.734 205.512C949.454 204.984 950.186 204.6 950.93 204.36C951.674 204.096 952.466 203.964 953.306 203.964C955.034 203.964 956.342 204.468 957.23 205.476C958.118 206.46 958.562 207.948 958.562 209.94V221.604C958.562 221.868 958.442 222 958.202 222H955.538ZM944.054 222C943.814 222 943.694 221.868 943.694 221.604V197.808C943.694 197.544 943.814 197.412 944.054 197.412H946.718C946.982 197.412 947.114 197.544 947.114 197.808V221.604C947.114 221.868 946.982 222 946.718 222H944.054ZM970.457 222.432C969.185 222.432 968.165 222.228 967.397 221.82C966.629 221.388 966.077 220.74 965.741 219.876C965.405 219.012 965.237 217.932 965.237 216.636V207.312H962.501C962.237 207.312 962.105 207.18 962.105 206.916V204.756C962.105 204.516 962.237 204.396 962.501 204.396H965.309L965.741 200.076C965.765 199.812 965.909 199.68 966.173 199.68H968.261C968.501 199.68 968.621 199.812 968.621 200.076L968.657 204.396H973.877C974.141 204.396 974.273 204.516 974.273 204.756V206.916C974.273 207.18 974.141 207.312 973.877 207.312H968.657V216.492C968.657 217.572 968.849 218.34 969.233 218.796C969.617 219.252 970.265 219.48 971.177 219.48C971.657 219.48 972.125 219.432 972.581 219.336C973.061 219.216 973.481 219.072 973.841 218.904C973.985 218.856 974.093 218.856 974.165 218.904C974.261 218.952 974.309 219.048 974.309 219.192V221.388C974.309 221.604 974.201 221.748 973.985 221.82C973.553 221.988 973.037 222.132 972.437 222.252C971.861 222.372 971.201 222.432 970.457 222.432ZM983.873 222.432C981.641 222.432 979.973 221.964 978.869 221.028C977.789 220.068 977.261 218.628 977.285 216.708C977.285 216.492 977.405 216.384 977.645 216.384H980.309C980.525 216.384 980.633 216.492 980.633 216.708C980.633 217.716 980.885 218.448 981.389 218.904C981.917 219.36 982.745 219.588 983.873 219.588C985.001 219.588 985.841 219.408 986.393 219.048C986.969 218.664 987.257 218.124 987.257 217.428C987.257 216.9 987.089 216.456 986.753 216.096C986.441 215.736 985.925 215.4 985.205 215.088L981.101 213.396C979.805 212.844 978.881 212.22 978.329 211.524C977.777 210.828 977.501 209.916 977.501 208.788C977.501 207.18 978.017 205.98 979.049 205.188C980.081 204.372 981.617 203.964 983.657 203.964C985.769 203.964 987.389 204.396 988.517 205.26C989.669 206.1 990.245 207.312 990.245 208.896C990.245 209.136 990.113 209.256 989.849 209.256H987.221C987.125 209.256 987.041 209.22 986.969 209.148C986.897 209.052 986.861 208.896 986.861 208.68C986.861 208.08 986.585 207.612 986.033 207.276C985.505 206.94 984.761 206.772 983.801 206.772C982.841 206.772 982.121 206.94 981.641 207.276C981.161 207.612 980.921 208.116 980.921 208.788C980.921 209.292 981.053 209.676 981.317 209.94C981.581 210.18 982.121 210.48 982.937 210.84L987.041 212.568C988.313 213.072 989.237 213.696 989.813 214.44C990.389 215.16 990.677 216.096 990.677 217.248C990.677 218.928 990.089 220.212 988.913 221.1C987.737 221.988 986.057 222.432 983.873 222.432ZM1002.66 222C1002.42 222 1002.3 221.868 1002.3 221.604V208.716C1002.3 208.02 1002.28 207.36 1002.23 206.736C1002.2 206.088 1002.14 205.44 1002.05 204.792C1002 204.528 1002.12 204.396 1002.41 204.396H1004.86C1004.98 204.396 1005.07 204.42 1005.14 204.468C1005.22 204.516 1005.26 204.6 1005.29 204.72C1005.38 205.176 1005.46 205.692 1005.5 206.268C1005.55 206.844 1005.58 207.336 1005.58 207.744L1005.72 209.724V221.604C1005.72 221.868 1005.59 222 1005.32 222H1002.66ZM1005.32 210.948L1005.18 207.78C1005.68 207.036 1006.26 206.388 1006.91 205.836C1007.58 205.26 1008.25 204.804 1008.92 204.468C1009.6 204.132 1010.22 203.964 1010.8 203.964C1011.23 203.964 1011.55 204 1011.77 204.072C1011.89 204.096 1011.96 204.144 1011.98 204.216C1012.03 204.264 1012.07 204.348 1012.09 204.468C1012.14 204.996 1012.15 205.548 1012.13 206.124C1012.13 206.676 1012.09 207.204 1012.02 207.708C1012 207.852 1011.94 207.948 1011.84 207.996C1011.77 208.044 1011.66 208.056 1011.52 208.032C1011.35 207.984 1011.16 207.948 1010.94 207.924C1010.72 207.9 1010.5 207.888 1010.26 207.888C1009.68 207.888 1009.09 208.02 1008.49 208.284C1007.92 208.524 1007.35 208.872 1006.8 209.328C1006.27 209.784 1005.78 210.324 1005.32 210.948ZM1021.8 222.432C1019.4 222.432 1017.57 221.88 1016.32 220.776C1015.08 219.672 1014.45 218.052 1014.45 215.916V211.02C1014.45 208.716 1015.06 206.964 1016.29 205.764C1017.54 204.564 1019.36 203.964 1021.76 203.964C1024.16 203.964 1025.97 204.552 1027.2 205.728C1028.44 206.904 1029.07 208.608 1029.07 210.84V213.648C1029.07 213.888 1028.95 214.008 1028.71 214.008H1017.84V215.16C1017.84 216.672 1018.16 217.776 1018.81 218.472C1019.46 219.168 1020.5 219.516 1021.94 219.516C1023.02 219.516 1023.85 219.348 1024.42 219.012C1025.02 218.652 1025.32 218.124 1025.32 217.428C1025.32 217.164 1025.46 217.032 1025.72 217.032H1028.38C1028.58 217.032 1028.7 217.14 1028.74 217.356C1028.84 218.964 1028.26 220.212 1027.02 221.1C1025.79 221.988 1024.05 222.432 1021.8 222.432ZM1017.84 211.308H1025.68V211.128C1025.68 209.664 1025.36 208.596 1024.71 207.924C1024.06 207.228 1023.1 206.88 1021.83 206.88C1020.49 206.88 1019.48 207.24 1018.81 207.96C1018.16 208.656 1017.84 209.724 1017.84 211.164V211.308ZM1039.56 222.432C1037.33 222.432 1035.66 221.964 1034.56 221.028C1033.48 220.068 1032.95 218.628 1032.97 216.708C1032.97 216.492 1033.09 216.384 1033.33 216.384H1036C1036.21 216.384 1036.32 216.492 1036.32 216.708C1036.32 217.716 1036.57 218.448 1037.08 218.904C1037.6 219.36 1038.43 219.588 1039.56 219.588C1040.69 219.588 1041.53 219.408 1042.08 219.048C1042.66 218.664 1042.94 218.124 1042.94 217.428C1042.94 216.9 1042.78 216.456 1042.44 216.096C1042.13 215.736 1041.61 215.4 1040.89 215.088L1036.79 213.396C1035.49 212.844 1034.57 212.22 1034.02 211.524C1033.46 210.828 1033.19 209.916 1033.19 208.788C1033.19 207.18 1033.7 205.98 1034.74 205.188C1035.77 204.372 1037.3 203.964 1039.34 203.964C1041.46 203.964 1043.08 204.396 1044.2 205.26C1045.36 206.1 1045.93 207.312 1045.93 208.896C1045.93 209.136 1045.8 209.256 1045.54 209.256H1042.91C1042.81 209.256 1042.73 209.22 1042.66 209.148C1042.58 209.052 1042.55 208.896 1042.55 208.68C1042.55 208.08 1042.27 207.612 1041.72 207.276C1041.19 206.94 1040.45 206.772 1039.49 206.772C1038.53 206.772 1037.81 206.94 1037.33 207.276C1036.85 207.612 1036.61 208.116 1036.61 208.788C1036.61 209.292 1036.74 209.676 1037 209.94C1037.27 210.18 1037.81 210.48 1038.62 210.84L1042.73 212.568C1044 213.072 1044.92 213.696 1045.5 214.44C1046.08 215.16 1046.36 216.096 1046.36 217.248C1046.36 218.928 1045.78 220.212 1044.6 221.1C1043.42 221.988 1041.74 222.432 1039.56 222.432ZM1057.37 222.432C1054.97 222.432 1053.15 221.88 1051.9 220.776C1050.65 219.672 1050.03 218.052 1050.03 215.916V211.02C1050.03 208.716 1050.64 206.964 1051.87 205.764C1053.11 204.564 1054.94 203.964 1057.34 203.964C1059.74 203.964 1061.55 204.552 1062.77 205.728C1064.02 206.904 1064.65 208.608 1064.65 210.84V213.648C1064.65 213.888 1064.53 214.008 1064.29 214.008H1053.41V215.16C1053.41 216.672 1053.74 217.776 1054.39 218.472C1055.03 219.168 1056.08 219.516 1057.52 219.516C1058.6 219.516 1059.43 219.348 1060 219.012C1060.6 218.652 1060.9 218.124 1060.9 217.428C1060.9 217.164 1061.03 217.032 1061.3 217.032H1063.96C1064.15 217.032 1064.27 217.14 1064.32 217.356C1064.42 218.964 1063.84 220.212 1062.59 221.1C1061.37 221.988 1059.63 222.432 1057.37 222.432ZM1053.41 211.308H1061.26V211.128C1061.26 209.664 1060.94 208.596 1060.29 207.924C1059.64 207.228 1058.68 206.88 1057.41 206.88C1056.07 206.88 1055.06 207.24 1054.39 207.96C1053.74 208.656 1053.41 209.724 1053.41 211.164V211.308ZM1069.67 222C1069.43 222 1069.31 221.868 1069.31 221.604V208.716C1069.31 208.02 1069.28 207.36 1069.23 206.736C1069.21 206.088 1069.15 205.44 1069.05 204.792C1069.01 204.528 1069.13 204.396 1069.41 204.396H1071.86C1071.98 204.396 1072.08 204.42 1072.15 204.468C1072.22 204.516 1072.27 204.6 1072.29 204.72C1072.39 205.176 1072.46 205.692 1072.51 206.268C1072.56 206.844 1072.58 207.336 1072.58 207.744L1072.73 209.724V221.604C1072.73 221.868 1072.59 222 1072.33 222H1069.67ZM1072.33 210.948L1072.19 207.78C1072.69 207.036 1073.27 206.388 1073.91 205.836C1074.59 205.26 1075.26 204.804 1075.93 204.468C1076.6 204.132 1077.23 203.964 1077.8 203.964C1078.23 203.964 1078.56 204 1078.77 204.072C1078.89 204.096 1078.97 204.144 1078.99 204.216C1079.04 204.264 1079.07 204.348 1079.1 204.468C1079.15 204.996 1079.16 205.548 1079.13 206.124C1079.13 206.676 1079.1 207.204 1079.03 207.708C1079 207.852 1078.94 207.948 1078.85 207.996C1078.77 208.044 1078.67 208.056 1078.52 208.032C1078.35 207.984 1078.16 207.948 1077.95 207.924C1077.73 207.9 1077.5 207.888 1077.26 207.888C1076.69 207.888 1076.1 208.02 1075.5 208.284C1074.92 208.524 1074.36 208.872 1073.81 209.328C1073.28 209.784 1072.79 210.324 1072.33 210.948ZM1087.55 222C1087.34 222 1087.18 221.904 1087.09 221.712L1081.25 204.792C1081.18 204.528 1081.29 204.396 1081.58 204.396H1084.42C1084.64 204.396 1084.78 204.492 1084.85 204.684L1087.88 214.44C1088.14 215.232 1088.39 216.048 1088.63 216.888C1088.9 217.704 1089.14 218.532 1089.35 219.372H1089.46C1089.68 218.532 1089.91 217.704 1090.15 216.888C1090.41 216.072 1090.67 215.256 1090.94 214.44L1093.96 204.684C1094.03 204.492 1094.19 204.396 1094.43 204.396H1097.24C1097.53 204.396 1097.63 204.528 1097.56 204.792L1091.69 221.712C1091.62 221.904 1091.47 222 1091.23 222H1087.55ZM1107.54 222.432C1105.14 222.432 1103.32 221.88 1102.07 220.776C1100.82 219.672 1100.2 218.052 1100.2 215.916V211.02C1100.2 208.716 1100.81 206.964 1102.03 205.764C1103.28 204.564 1105.11 203.964 1107.51 203.964C1109.91 203.964 1111.72 204.552 1112.94 205.728C1114.19 206.904 1114.81 208.608 1114.81 210.84V213.648C1114.81 213.888 1114.69 214.008 1114.45 214.008H1103.58V215.16C1103.58 216.672 1103.91 217.776 1104.55 218.472C1105.2 219.168 1106.25 219.516 1107.69 219.516C1108.77 219.516 1109.59 219.348 1110.17 219.012C1110.77 218.652 1111.07 218.124 1111.07 217.428C1111.07 217.164 1111.2 217.032 1111.47 217.032H1114.13C1114.32 217.032 1114.44 217.14 1114.49 217.356C1114.59 218.964 1114.01 220.212 1112.76 221.1C1111.54 221.988 1109.8 222.432 1107.54 222.432ZM1103.58 211.308H1111.43V211.128C1111.43 209.664 1111.11 208.596 1110.46 207.924C1109.81 207.228 1108.85 206.88 1107.58 206.88C1106.23 206.88 1105.23 207.24 1104.55 207.96C1103.91 208.656 1103.58 209.724 1103.58 211.164V211.308ZM1124.26 222.432C1122.58 222.432 1121.3 221.88 1120.41 220.776C1119.52 219.672 1119.08 218.028 1119.08 215.844V211.2C1119.08 208.872 1119.64 207.084 1120.77 205.836C1121.92 204.588 1123.52 203.964 1125.56 203.964C1126.47 203.964 1127.43 204.084 1128.44 204.324C1129.47 204.564 1130.26 204.876 1130.81 205.26L1130.99 208.14C1130.25 207.732 1129.45 207.432 1128.58 207.24C1127.72 207.024 1126.95 206.916 1126.28 206.916C1125.01 206.916 1124.06 207.312 1123.43 208.104C1122.81 208.872 1122.5 210.024 1122.5 211.56V215.808C1122.5 217.008 1122.73 217.92 1123.18 218.544C1123.66 219.144 1124.37 219.444 1125.31 219.444C1125.88 219.444 1126.45 219.336 1127 219.12C1127.57 218.88 1128.19 218.508 1128.83 218.004C1129.51 217.476 1130.27 216.78 1131.14 215.916V218.832C1130.35 219.624 1129.59 220.296 1128.87 220.848C1128.15 221.376 1127.42 221.772 1126.67 222.036C1125.93 222.3 1125.13 222.432 1124.26 222.432ZM1131.35 222C1131.23 222 1131.14 221.976 1131.07 221.928C1130.99 221.856 1130.95 221.748 1130.92 221.604C1130.87 221.244 1130.81 220.788 1130.74 220.236C1130.67 219.684 1130.65 219.228 1130.67 218.868L1130.45 217.176V197.808C1130.45 197.544 1130.57 197.412 1130.81 197.412H1133.48C1133.74 197.412 1133.87 197.544 1133.87 197.808V217.86C1133.87 218.22 1133.87 218.64 1133.87 219.12C1133.9 219.576 1133.92 220.02 1133.95 220.452C1133.99 220.884 1134.04 221.232 1134.09 221.496C1134.16 221.832 1134.04 222 1133.73 222H1131.35ZM1140.82 222.432C1140.03 222.432 1139.45 222.24 1139.09 221.856C1138.76 221.448 1138.59 220.908 1138.59 220.236V219.804C1138.59 219.156 1138.76 218.64 1139.09 218.256C1139.45 217.848 1140.03 217.644 1140.82 217.644C1141.61 217.644 1142.18 217.848 1142.51 218.256C1142.87 218.64 1143.05 219.156 1143.05 219.804V220.236C1143.05 220.908 1142.87 221.448 1142.51 221.856C1142.18 222.24 1141.61 222.432 1140.82 222.432Z" fill="white"/>
<path d="M477.332 216.004C479.124 215.92 479.586 214.394 479.614 213.68H482.12C482.008 216.452 480.034 218.146 477.29 218.146C474.196 218.146 471.9 216.2 471.9 211.804C471.9 209.088 473.202 205.868 477.276 205.868C480.384 205.868 482.05 208.178 482.092 209.998H479.586C479.544 209.172 478.956 208.066 477.304 207.982C475.47 208.038 474.7 209.466 474.7 211.804C474.7 215.85 476.492 215.976 477.332 216.004ZM477.5 226C469.772 226 463.5 219.728 463.5 212C463.5 204.272 469.772 198 477.5 198C485.228 198 491.5 204.272 491.5 212C491.5 219.728 485.228 226 477.5 226ZM477.5 200.8C471.326 200.8 466.3 205.826 466.3 212C466.3 218.174 471.326 223.2 477.5 223.2C483.674 223.2 488.7 218.174 488.7 212C488.7 205.826 483.674 200.8 477.5 200.8Z" fill="white"/>
<defs>
<linearGradient id="paint0_linear_4_108" x1="0" y1="0" x2="1418.14" y2="392.068" gradientUnits="userSpaceOnUse">
<stop stop-color="#004637"/>
<stop offset="0.391419" stop-color="#026773"/>
<stop offset="0.539782" stop-color="#027489"/>
<stop offset="1" stop-color="#04A7C3"/>
</linearGradient>
</defs>
</svg>
