<svg width="1440" height="900" viewBox="0 0 1440 900" fill="none" xmlns="http://www.w3.org/2000/svg">
<g clip-path="url(#clip0_476_7)">
<g opacity="0.5">
<path d="M359.571 460.972C342.914 448.879 334.103 434.451 340.619 413.251C362.742 341.717 436.795 282.683 421.702 203.859C413.898 163.388 379.943 127.57 331.565 99.9005C102.725 -30.5898 -112.713 21.3949 -177.691 58.0527C-244.286 95.6032 -208.584 170.513 -173.522 219.193C-130.355 279.184 -75.6604 339.121 -69.3609 404.695C-62.7222 473.932 -29.682 631.809 14.4359 700.726C45.5629 749.348 122.809 817.545 200.619 826.438C278.429 835.332 354.88 787.152 413.725 757.729C472.569 728.305 718.693 872.037 746.355 826.314C783.548 764.83 701.012 687.211 641.821 637.439C581.798 586.983 512.262 541.514 436.709 500.942C408.707 485.985 378.883 475.033 359.571 460.972Z" stroke="#1D0FBF" stroke-opacity="0.2" stroke-width="3"/>
<path d="M-187.615 46.73C-258.582 86.7198 -220.418 166.614 -183.144 218.486C-137.243 282.414 -78.7568 346.311 -72.1954 416.225C-65.1673 490.013 -45.1079 642.096 1.97627 715.564C35.1548 767.458 117.155 833.847 200.202 843.339C274.421 851.822 347.183 809.392 404.915 783.075C464.403 755.978 687.378 879.43 718.675 836.376C761.872 776.753 698.544 700.841 651.605 648.648C604.538 596.244 544.838 548.275 476.566 505.008C451.262 488.988 423.871 476.648 405.268 461.688C389.287 448.988 380.049 434.314 383.473 413.643C388.701 382.5 400.357 353.462 410.173 324.607C418.595 300 425.498 275.416 424.996 249.3C424.776 236.637 422.184 223.507 417.264 209.523C403.719 171.532 367.974 136.783 317.89 108.134C243.455 65.73 170.428 38.8674 102.381 24.134C-25.1225 -3.56714 -137.382 18.3795 -187.615 46.73Z" stroke="#1D0FBF" stroke-opacity="0.2" stroke-width="3"/>
<path d="M-197.689 35.3904C-273.028 77.8195 -232.551 162.68 -192.916 217.761C-144.132 285.643 -82.1532 353.467 -75.0307 427.755C-67.6132 506.094 -60.5456 652.479 -10.6448 730.482C24.5963 785.55 111.49 850.245 199.475 860.302C270.252 868.392 339.336 831.616 395.794 808.483C456.076 783.73 656.04 887.017 690.536 846.483C739.884 788.739 695.455 714.595 660.917 659.999C626.497 605.71 577.092 555.195 516.101 509.233C493.635 492.264 468.676 478.537 450.643 462.565C435.349 449.159 425.546 434.127 425.867 414.081C426.367 383.18 430.271 354.335 432.002 325.927C433.535 301.904 433.655 278.308 427.728 253.237C424.843 241.347 419.608 228.797 412.355 215.33C393.507 179.966 355.385 146.121 303.892 116.527C231.625 75.0565 160.492 44.8836 92.3881 25.3433C-25.896 -8.74946 -140.491 3.13358 -197.689 35.3904Z" stroke="#1D0FBF" stroke-opacity="0.2" stroke-width="3"/>
<path d="M-207.763 24.0507C-287.484 69.0158 -244.684 158.746 -202.847 217.116C-151.18 288.952 -85.5702 360.815 -78.1748 439.348C-70.2184 522.255 -76.2812 662.829 -23.5636 745.366C13.74 803.609 105.377 866.593 198.599 877.248C265.785 884.928 331.479 853.936 386.674 833.892C447.738 811.58 624.714 894.506 662.547 856.607C718.197 800.76 692.505 728.463 670.392 671.271C648.766 615.113 609.508 562.035 555.809 513.282C536.03 495.347 513.653 480.249 496.18 463.361C481.573 449.25 471.194 433.957 468.561 414.552C464.334 383.896 460.485 355.241 454.141 327.184C448.775 303.842 442.273 281.155 430.772 257.112C425.382 245.916 417.481 234.138 407.917 220.995C383.916 188.274 343.417 155.333 290.367 124.778C220.095 84.417 150.984 51.1444 82.7179 26.3934C-26.7674 -13.0615 -143.6 -12.1124 -207.763 24.0507Z" stroke="#1D0FBF" stroke-opacity="0.2" stroke-width="3"/>
<path d="M-217.834 12.7109C-301.927 60.1152 -256.815 154.813 -212.616 216.391C-158.227 292.261 -88.9637 367.971 -81.0072 450.878C-72.6614 538.336 -91.716 673.212 -36.0211 760.204C3.33405 821.719 99.875 882.912 198.174 894.246C261.768 901.514 324.211 876.421 377.867 859.238C439.851 839.48 593.828 902.144 634.882 866.572C697.133 812.655 689.718 742.251 680.178 682.479C671.027 624.613 642.075 568.892 595.658 517.444C578.716 498.56 558.771 482.075 541.858 464.271C527.926 449.552 516.982 433.9 511.257 415.024C502.015 384.479 490.839 356.261 476.272 328.537C464.317 305.814 450.893 284.001 433.645 261.163C425.75 250.66 415.195 239.559 403.149 226.916C374.305 196.776 330.969 164.784 276.511 133.285C208.246 93.9367 141.101 58.0478 72.7057 27.796C-27.8534 -16.8105 -146.546 -27.4381 -217.834 12.7109Z" stroke="#1D0FBF" stroke-opacity="0.2" stroke-width="3"/>
<path d="M-227.908 1.37088C-316.373 51.2145 -268.948 150.879 -222.387 215.666C-165.115 295.491 -92.2098 375.143 -83.9805 462.294C-75.2453 554.303 -107.43 683.368 -48.7801 775.008C-7.3624 839.697 93.9218 899.18 197.458 911.112C257.461 917.97 316.652 898.775 368.758 884.549C431.812 867.363 562.801 909.668 606.754 876.583C675.744 824.709 686.169 756.051 689.502 693.733C692.675 634.141 674.18 575.795 635.066 521.459C620.8 501.705 603.449 483.753 587.255 464.954C574 449.626 562.341 433.598 553.812 415.381C539.543 385.046 521.224 356.991 498.261 329.777C479.706 307.769 459.66 286.864 436.538 265.02C426.288 255.228 413.24 244.723 398.561 232.563C365.185 204.943 318.84 174.076 262.686 141.501C196.427 103.166 130.756 64.9965 62.5858 28.7945C-29.4569 -20.0308 -149.655 -42.6844 -227.908 1.37088Z" stroke="#1D0FBF" stroke-opacity="0.2" stroke-width="3"/>
<path d="M-237.842 -9.8552C-330.678 42.4277 -280.93 146.962 -232.157 214.941C-172.002 298.72 -95.6043 382.298 -86.8139 473.824C-77.5397 570.401 -122.855 693.654 -61.3882 789.829C-17.908 857.693 88.2581 915.578 196.743 927.978C253.305 934.443 309.084 921.226 359.65 909.861C423.764 895.343 531.914 917.305 578.777 886.61C654.645 836.894 682.782 769.771 698.988 704.908C714.347 643.476 706.459 582.521 674.775 525.508C663.197 504.787 648.278 485.448 632.793 465.75C620.225 449.717 607.839 433.41 596.506 415.853C577.062 385.71 551.888 357.949 520.402 331.034C495.257 309.645 468.451 289.535 439.583 268.895C426.828 259.796 411.286 249.888 393.964 238.307C356.227 213.029 306.563 183.351 249.012 149.734C184.76 112.413 120.08 72.2011 52.7553 29.9239C-31.6909 -23.0293 -152.763 -57.9305 -237.842 -9.8552Z" stroke="#1D0FBF" stroke-opacity="0.2" stroke-width="3"/>
<path d="M-247.915 -21.1954C-345.134 33.6236 -292.923 143.141 -241.789 214.329C-178.751 302.063 -98.7104 389.584 -89.6581 485.45C-79.9946 586.578 -138.302 704.134 -73.8685 804.861C-28.4864 875.979 82.5835 932.073 196.305 945.072C249.276 951.126 301.921 944.114 350.969 935.417C416.27 923.778 501.442 925.284 551.227 896.882C633.951 849.517 679.672 783.718 708.74 716.407C736.135 653.117 738.842 589.651 714.6 529.864C705.71 508.177 693.223 487.45 678.448 466.854C666.405 450.195 653.305 433.512 639.179 416.517C614.536 386.76 582.402 358.889 542.509 332.581C510.936 311.73 477.358 292.512 442.582 273.156C427.473 264.767 409.448 255.36 389.333 244.342C347.247 221.309 294.253 192.916 235.294 158.354C173.07 121.852 108.749 79.8206 42.903 31.2465C-34.3956 -25.886 -155.87 -73.177 -247.915 -21.1954Z" stroke="#1D0FBF" stroke-opacity="0.2" stroke-width="3"/>
<path d="M445.637 276.934C356.927 237.405 192.586 169.931 33.0606 32.473C-37.8606 -28.7309 -158.83 -88.4058 -257.988 -32.535C-359.579 24.7232 -305.056 139.208 -251.709 213.588C-185.938 305.258 -102.256 396.723 -92.642 496.963C-82.4395 602.659 -153.877 714.404 -86.6273 819.665C-39.1826 893.958 76.7803 948.358 195.59 961.938C314.399 975.518 433.242 951.679 523.11 906.796C612.99 861.817 675.858 797.193 718.086 727.468C803.696 585.896 766.393 441.442 564.521 333.628C526.52 313.316 486.17 294.988 445.637 276.934Z" stroke="#1D0FBF" stroke-opacity="0.2" stroke-width="3"/>
</g>
<g filter="url(#filter0_f_476_7)">
<path d="M964.313 870.704C1231.22 870.704 1447.59 654.335 1447.59 387.43C1447.59 120.525 1231.22 -95.844 964.313 -95.844C697.408 -95.844 481.039 120.525 481.039 387.43C481.039 654.335 697.408 870.704 964.313 870.704Z" fill="#C0F0FF"/>
<path d="M106.5 1061C223.861 1061 319 965.861 319 848.5C319 731.139 223.861 636 106.5 636C-10.8605 636 -106 731.139 -106 848.5C-106 965.861 -10.8605 1061 106.5 1061Z" fill="#C0F0FF"/>
<path d="M59.5 974C111.691 974 154 931.691 154 879.5C154 827.309 111.691 785 59.5 785C7.30909 785 -35 827.309 -35 879.5C-35 931.691 7.30909 974 59.5 974Z" fill="#E7C0FF"/>
<path d="M1103.43 708.748C1370.34 708.748 1586.7 492.379 1586.7 225.474C1586.7 -41.4308 1370.34 -257.8 1103.43 -257.8C836.525 -257.8 620.156 -41.4308 620.156 225.474C620.156 492.379 836.525 708.748 1103.43 708.748Z" fill="#93AAFF"/>
<path d="M1284.07 621.541C1550.97 621.541 1767.34 405.172 1767.34 138.267C1767.34 -128.638 1550.97 -345.007 1284.07 -345.007C1017.16 -345.007 800.796 -128.638 800.796 138.267C800.796 405.172 1017.16 621.541 1284.07 621.541Z" fill="#FEBDFF"/>
<path opacity="0.6" d="M887.488 132.557C902.022 0.707458 959.641 -34.0717 1124.19 -23.1708C1139.25 -15.3844 1166.65 13.7885 1155.86 68.1892C1142.36 136.19 1004.8 62.4792 1004.8 94.6629C1004.8 126.847 1036.47 217.168 1004.8 295.032C973.138 372.896 972.1 505.783 936.801 614.273C901.503 722.763 844.922 729.511 798.723 743.527C761.764 754.739 716.88 748.199 699.058 743.527C800.28 697.328 772.249 682.274 827.273 640.747C882.297 599.219 872.953 264.406 887.488 132.557Z" fill="#FA00FF" fill-opacity="0.63"/>
<path d="M1573.73 594.548C1840.63 594.548 2057 378.179 2057 111.274C2057 -155.631 1840.63 -372 1573.73 -372C1306.83 -372 1090.46 -155.631 1090.46 111.274C1090.46 378.179 1306.83 594.548 1573.73 594.548Z" fill="#FEDEFF"/>
</g>
<g opacity="0.5">
<path d="M530.571 480.972C513.914 468.879 505.103 454.451 511.619 433.251C533.742 361.717 607.795 302.683 592.702 223.859C584.898 183.388 550.943 147.57 502.565 119.901C273.725 -10.5898 58.2866 41.395 -6.69065 78.0528C-73.2858 115.603 -37.5841 190.513 -2.52233 239.194C40.6451 299.184 95.3395 359.121 101.639 424.695C108.278 493.932 141.318 651.809 185.436 720.726C216.563 769.348 293.809 837.545 371.619 846.438C449.429 855.332 525.88 807.152 584.725 777.729C643.569 748.305 889.693 892.037 917.355 846.314C954.548 784.83 872.012 707.212 812.821 657.439C752.798 606.983 683.262 561.514 607.709 520.942C579.707 505.985 549.883 495.033 530.571 480.972Z" stroke="#1D0FBF" stroke-opacity="0.2" stroke-width="3"/>
<path d="M-16.615 66.73C-87.5819 106.72 -49.418 186.614 -12.1441 238.486C33.7567 302.414 92.2429 366.311 98.8043 436.225C105.832 510.013 125.892 662.096 172.976 735.564C206.155 787.458 288.155 853.847 371.202 863.339C445.421 871.822 518.183 829.392 575.915 803.075C635.403 775.978 858.378 899.43 889.675 856.376C932.872 796.753 869.544 720.841 822.605 668.648C775.538 616.244 715.838 568.275 647.566 525.008C622.262 508.988 594.871 496.648 576.268 481.688C560.287 468.988 551.049 454.314 554.473 433.643C559.701 402.5 571.357 373.462 581.173 344.607C589.595 320 596.498 295.416 595.996 269.3C595.776 256.637 593.184 243.507 588.264 229.523C574.719 191.532 538.974 156.783 488.89 128.134C414.455 85.73 341.428 58.8674 273.381 44.134C145.877 16.4329 33.6181 38.3795 -16.615 66.73Z" stroke="#1D0FBF" stroke-opacity="0.2" stroke-width="3"/>
<path d="M-26.6887 55.3903C-102.027 97.8194 -61.5509 182.68 -21.9151 237.761C26.8686 305.643 88.8474 373.466 95.9699 447.755C103.387 526.094 110.455 672.479 160.356 750.482C195.597 805.55 282.491 870.245 370.476 880.302C441.253 888.392 510.336 851.616 566.795 828.483C627.076 803.73 827.041 907.016 861.537 866.483C910.885 808.739 866.455 734.595 831.918 679.999C797.497 625.71 748.093 575.195 687.102 529.233C664.635 512.264 639.676 498.537 621.644 482.565C606.35 469.158 596.547 454.127 596.868 434.08C597.368 403.18 601.271 374.335 603.002 345.926C604.535 321.904 604.655 298.308 598.729 273.237C595.843 261.347 590.608 248.797 583.355 235.33C564.507 199.966 526.386 166.12 474.893 136.527C402.626 95.0564 331.493 64.8835 263.389 45.3432C145.105 11.2505 30.5093 23.1335 -26.6887 55.3903Z" stroke="#1D0FBF" stroke-opacity="0.2" stroke-width="3"/>
<path d="M-36.762 44.0507C-116.483 89.0158 -73.6835 178.746 -31.8466 237.116C19.8202 308.953 85.4301 380.815 92.8255 459.348C100.782 542.255 94.7191 682.829 147.437 765.366C184.74 823.609 276.377 886.593 369.599 897.248C436.785 904.928 502.479 873.936 557.675 853.892C618.739 831.58 795.715 914.506 833.548 876.607C889.198 820.76 863.505 748.463 841.392 691.271C819.767 635.113 780.509 582.035 726.81 533.282C707.031 515.347 684.654 500.249 667.181 483.361C652.574 469.25 642.194 453.957 639.562 434.552C635.335 403.896 631.485 375.241 625.142 347.184C619.776 323.842 613.273 301.155 601.772 277.112C596.382 265.916 588.481 254.138 578.917 240.995C554.917 208.274 514.418 175.333 461.368 144.778C391.096 104.417 321.984 71.1444 253.718 46.3934C144.233 6.93856 27.4007 7.88763 -36.762 44.0507Z" stroke="#1D0FBF" stroke-opacity="0.2" stroke-width="3"/>
<path d="M-46.834 32.7108C-130.927 80.1151 -85.8147 174.812 -41.616 236.391C12.7731 312.261 82.0363 387.971 89.9928 470.878C98.3386 558.336 79.284 693.212 134.979 780.204C174.334 841.719 270.875 902.912 369.174 914.245C432.768 921.514 495.211 896.421 548.867 879.238C610.851 859.48 764.828 922.144 805.882 886.572C868.133 832.655 860.718 762.251 851.178 702.479C842.027 644.613 813.075 588.892 766.658 537.444C749.716 518.56 729.771 502.075 712.858 484.271C698.926 469.552 687.982 453.9 682.257 435.024C673.015 404.479 661.839 376.261 647.272 348.537C635.317 325.814 621.893 304.001 604.645 281.163C596.75 270.66 586.195 259.559 574.149 246.916C545.305 216.776 501.969 184.784 447.511 153.284C379.246 113.937 312.101 78.0477 243.706 47.7959C143.147 3.1894 24.4542 -7.43819 -46.834 32.7108Z" stroke="#1D0FBF" stroke-opacity="0.2" stroke-width="3"/>
<path d="M-56.9076 21.3709C-145.372 71.2145 -97.9475 170.878 -51.3869 235.666C5.88512 315.491 78.7906 395.143 87.0199 482.294C95.7551 574.303 63.5701 703.368 122.22 795.008C163.638 859.697 264.922 919.18 368.458 931.112C428.461 937.97 487.653 918.775 539.758 904.549C602.813 887.363 733.801 929.668 777.754 896.583C846.744 844.709 857.169 776.051 860.502 713.733C863.676 654.141 845.181 595.794 806.066 541.459C791.801 521.705 774.449 503.753 758.256 484.954C745.001 469.626 733.341 453.598 724.812 435.381C710.543 405.046 692.224 376.991 669.262 349.777C650.706 327.769 630.661 306.864 607.539 285.02C597.289 275.228 584.24 264.723 569.562 252.563C536.186 224.943 489.841 194.076 433.687 161.501C367.428 123.166 301.756 84.9964 233.586 48.7944C141.543 -0.0308098 21.3455 -22.6844 -56.9076 21.3709Z" stroke="#1D0FBF" stroke-opacity="0.2" stroke-width="3"/>
<path d="M-66.8419 10.1448C-159.678 62.4277 -109.93 166.962 -61.1573 234.941C-1.00224 318.72 75.3958 402.298 84.1862 493.824C93.4604 590.401 48.145 713.654 109.612 809.829C153.092 877.693 259.258 935.578 367.743 947.978C424.305 954.443 480.084 941.226 530.65 929.861C594.764 915.343 702.914 937.305 749.777 906.61C825.645 856.894 853.782 789.771 869.988 724.908C885.347 663.476 877.459 602.521 845.775 545.508C834.197 524.787 819.278 505.448 803.793 485.75C791.225 469.717 778.839 453.41 767.506 435.853C748.062 405.71 722.888 377.949 691.402 351.034C666.257 329.645 639.451 309.535 610.583 288.895C597.828 279.796 582.286 269.888 564.964 258.307C527.227 233.029 477.563 203.351 420.012 169.734C355.76 132.413 291.08 92.2011 223.755 49.9239C139.309 -3.02928 18.2374 -37.9305 -66.8419 10.1448Z" stroke="#1D0FBF" stroke-opacity="0.2" stroke-width="3"/>
<path d="M-76.9141 -1.19526C-174.133 53.6237 -121.923 163.141 -70.7883 234.33C-7.75022 322.063 72.29 409.584 81.3423 505.45C91.0058 606.578 32.6987 724.134 97.1318 824.861C142.514 895.979 253.584 952.073 367.306 965.072C420.276 971.126 472.922 964.114 521.969 955.417C587.27 943.778 672.443 945.284 722.227 916.882C804.951 869.517 850.673 803.718 879.741 736.407C907.136 673.117 909.842 609.651 885.6 549.864C876.71 528.177 864.223 507.45 849.448 486.854C837.406 470.195 824.305 453.513 810.179 436.517C785.537 406.76 753.402 378.889 713.509 352.581C681.937 331.73 648.358 312.512 613.583 293.156C598.473 284.767 580.448 275.36 560.334 264.342C518.247 241.309 465.253 212.916 406.294 178.355C344.07 141.853 279.75 99.8207 213.903 51.2466C136.605 -5.88586 15.1301 -53.1769 -76.9141 -1.19526Z" stroke="#1D0FBF" stroke-opacity="0.2" stroke-width="3"/>
<path d="M616.637 296.934C527.927 257.405 363.586 189.931 204.06 52.473C133.139 -8.73092 12.1705 -68.4058 -86.9881 -12.535C-188.579 44.7232 -134.056 159.208 -80.7093 233.588C-14.9379 325.258 68.7445 416.723 78.3579 516.963C88.5604 622.659 17.1229 734.404 84.3726 839.665C131.817 913.958 247.78 968.358 366.59 981.938C485.399 995.518 604.242 971.679 694.11 926.796C783.99 881.817 846.858 817.193 889.086 747.468C974.696 605.896 937.393 461.442 735.521 353.628C697.52 333.316 657.17 314.988 616.637 296.934Z" stroke="#1D0FBF" stroke-opacity="0.2" stroke-width="3"/>
</g>
</g>
<defs>
<filter id="filter0_f_476_7" x="-306" y="-572" width="2563" height="1833" filterUnits="userSpaceOnUse" color-interpolation-filters="sRGB">
<feFlood flood-opacity="0" result="BackgroundImageFix"/>
<feBlend mode="normal" in="SourceGraphic" in2="BackgroundImageFix" result="shape"/>
<feGaussianBlur stdDeviation="100" result="effect1_foregroundBlur_476_7"/>
</filter>
<clipPath id="clip0_476_7">
<rect width="1440" height="900" fill="white"/>
</clipPath>
</defs>
</svg>
