<svg width="2491" height="1449" viewBox="0 0 2491 1449" fill="none" xmlns="http://www.w3.org/2000/svg">
<g opacity="0.45" filter="url(#filter0_f_0_1)">
<path d="M749 996.899C913.029 996.899 1046 874.919 1046 724.449C1046 573.98 913.029 452 749 452C584.971 452 452 573.98 452 724.449C452 874.919 584.971 996.899 749 996.899Z" fill="#04A7AA" fill-opacity="0.466667"/>
</g>
<g filter="url(#filter1_f_0_1)">
<path d="M1985 1023.77C2068.95 1023.77 2137 956.667 2137 873.887C2137 791.107 2068.95 724 1985 724C1901.05 724 1833 791.107 1833 873.887C1833 956.667 1901.05 1023.77 1985 1023.77Z" fill="#04A7C3"/>
</g>
<defs>
<filter id="filter0_f_0_1" x="0.346008" y="0.346008" width="1497.31" height="1448.21" filterUnits="userSpaceOnUse" color-interpolation-filters="sRGB">
<feFlood flood-opacity="0" result="BackgroundImageFix"/>
<feBlend mode="normal" in="SourceGraphic" in2="BackgroundImageFix" result="shape"/>
<feGaussianBlur stdDeviation="225.827" result="effect1_foregroundBlur_0_1"/>
</filter>
<filter id="filter1_f_0_1" x="1479.14" y="370.14" width="1011.72" height="1007.49" filterUnits="userSpaceOnUse" color-interpolation-filters="sRGB">
<feFlood flood-opacity="0" result="BackgroundImageFix"/>
<feBlend mode="normal" in="SourceGraphic" in2="BackgroundImageFix" result="shape"/>
<feGaussianBlur stdDeviation="176.93" result="effect1_foregroundBlur_0_1"/>
</filter>
</defs>
</svg>
