<svg width="2102" height="585" viewBox="0 0 2102 585" fill="none" xmlns="http://www.w3.org/2000/svg">
<path d="M982 365.6C995.333 365.867 1007.87 372.267 1019.6 384.8C1031.6 397.067 1037.6 411.733 1037.6 428.8C1037.6 444.8 1032.27 458.933 1021.6 471.2C1011.2 483.2 998 490.133 982 492H918.4V277.2C918.4 266.267 914.533 256.933 906.8 249.2C899.067 241.2 889.6 237.2 878.4 237.2C867.467 237.2 858.133 241.2 850.4 249.2C842.667 256.933 838.8 266.267 838.8 277.2V492H775.2V277.2C775.2 266.267 771.333 256.933 763.6 249.2C755.867 241.2 746.4 237.2 735.2 237.2C724.267 237.2 714.933 241.2 707.2 249.2C699.467 256.933 695.6 266.267 695.6 277.2V492H632V277.2C632 248.667 642.133 224.4 662.4 204.4C682.667 184.133 706.933 174 735.2 174C762.933 174 786.8 183.6 806.8 202.8C827.067 183.6 850.933 174 878.4 174C906.933 174 931.333 184.133 951.6 204.4C971.867 224.4 982 248.667 982 277.2V365.6ZM974.8 445.6C979.6 445.6 983.733 443.867 987.2 440.4C990.933 436.933 992.8 432.667 992.8 427.6C992.8 422.8 990.933 418.667 987.2 415.2C983.733 411.467 979.6 409.6 974.8 409.6C969.733 409.6 965.467 411.467 962 415.2C958.533 418.667 956.8 422.8 956.8 427.6C956.8 432.667 958.533 436.933 962 440.4C965.467 443.867 969.733 445.6 974.8 445.6ZM1279.03 173.6V237.2H1119.43V315.6H1224.63V492H1161.03V372.8H1055.83V174L1279.03 173.6ZM1371.88 429.6L1543.08 430V492H1303.88V173.2H1371.48L1371.88 429.6ZM1631.25 492H1563.25V173.2H1630.85L1631.25 492ZM1769.18 236.8C1752.91 236.8 1739.31 243.067 1728.38 255.6C1717.71 268.133 1712.38 282.667 1712.38 299.2V492.4H1649.58V299.2C1649.58 265.333 1660.91 236.133 1683.58 211.6C1707.04 186.267 1735.58 173.6 1769.18 173.6C1802.78 173.6 1831.31 186.267 1854.78 211.6C1877.44 236.133 1888.78 265.333 1888.78 299.2V492.4H1825.98V299.2C1825.98 282.667 1820.51 268.133 1809.58 255.6C1798.91 243.067 1785.44 236.8 1769.18 236.8ZM1971.77 288.4L2032.17 174H2099.77L2004.57 357.6L2101.37 491.6H2033.77L1970.97 409.2L1971.77 492H1908.17V174H1971.77V288.4Z" fill="#4C7F88"/>
<path d="M300 100C300 44.7715 344.772 0 400 0H440C495.228 0 540 44.7715 540 100V263H300V100Z" fill="#4C7F88"/>
<path d="M262 101C262 45.7715 306.772 1 362 1H484C539.228 1 584 45.7715 584 101V265H262V101Z" fill="#4C7F88"/>
<path d="M100 570C44.7715 570 0 525.228 0 470L0 354C0 298.772 44.7715 254 100 254H262V570H100Z" fill="#4C7F88"/>
<rect x="262" y="254" width="322" height="316" fill="#152545"/>
<g filter="url(#filter0_di_0_1)">
<ellipse cx="418.808" cy="412.106" rx="144.147" ry="141.532" fill="#4C7F88"/>
</g>
<rect x="387.471" y="332.111" width="62.6706" height="159.99" rx="1.057" fill="white"/>
<rect x="500.283" y="381.339" width="61.5355" height="162.949" rx="1.057" transform="rotate(90 500.283 381.339)" fill="white"/>
<defs>
<filter id="filter0_di_0_1" x="248.999" y="250.315" width="339.617" height="334.387" filterUnits="userSpaceOnUse" color-interpolation-filters="sRGB">
<feFlood flood-opacity="0" result="BackgroundImageFix"/>
<feColorMatrix in="SourceAlpha" type="matrix" values="0 0 0 0 0 0 0 0 0 0 0 0 0 0 0 0 0 0 127 0" result="hardAlpha"/>
<feOffset dy="5.40245"/>
<feGaussianBlur stdDeviation="12.8308"/>
<feComposite in2="hardAlpha" operator="out"/>
<feColorMatrix type="matrix" values="0 0 0 0 0.0862745 0 0 0 0 0.470588 0 0 0 0 0.94902 0 0 0 0.2 0"/>
<feBlend mode="normal" in2="BackgroundImageFix" result="effect1_dropShadow_0_1"/>
<feBlend mode="normal" in="SourceGraphic" in2="effect1_dropShadow_0_1" result="shape"/>
<feColorMatrix in="SourceAlpha" type="matrix" values="0 0 0 0 0 0 0 0 0 0 0 0 0 0 0 0 0 0 127 0" result="hardAlpha"/>
<feOffset dy="5.40245"/>
<feGaussianBlur stdDeviation="2.70123"/>
<feComposite in2="hardAlpha" operator="arithmetic" k2="-1" k3="1"/>
<feColorMatrix type="matrix" values="0 0 0 0 0 0 0 0 0 0 0 0 0 0 0 0 0 0 0.12 0"/>
<feBlend mode="normal" in2="shape" result="effect2_innerShadow_0_1"/>
</filter>
</defs>
</svg>
