<svg width="60" height="59" viewBox="0 0 60 59" fill="none" xmlns="http://www.w3.org/2000/svg">
<path d="M10.8513 16.4899L15.053 18.5908C15.8264 18.9286 16.668 19.0808 17.5107 19.0352C18.3533 18.9896 19.1736 18.7475 19.9059 18.3281L23.8766 15.7441C24.5598 15.2482 25.1159 14.5975 25.4993 13.8453C25.8827 13.0931 26.0826 12.2607 26.0824 11.4164L25.8304 6.67899C25.7384 5.84149 25.451 5.03718 24.9912 4.33109C24.5313 3.625 23.9121 3.03676 23.1832 2.61386L18.9816 0.460502C18.2097 0.118695 17.3681 -0.0365566 16.525 0.0072459C15.682 0.0510484 14.861 0.292644 14.1286 0.712602L10.1581 3.29664C9.4761 3.7938 8.92085 4.44474 8.53765 5.19674C8.15435 5.94863 7.95372 6.78046 7.95215 7.62437L8.20425 12.3618C8.28586 13.2107 8.56853 14.0279 9.02883 14.7458C9.48912 15.4638 10.1139 16.0617 10.8513 16.4899Z" fill="#04A7C3"/>
<path d="M36.1972 22.6245L31.9955 20.4712C31.224 20.1335 30.384 19.9814 29.5431 20.0269C28.7021 20.0725 27.8836 20.3147 27.1531 20.7338L23.1405 23.3178C22.4609 23.8173 21.9075 24.4688 21.5245 25.2202C21.1415 25.9716 20.9394 26.8022 20.9346 27.6455L21.1868 32.3829C21.2787 33.2205 21.5661 34.0248 22.0259 34.7309C22.4857 35.437 23.105 36.0253 23.8337 36.4481L28.0354 38.5489C28.8056 38.8906 29.6454 39.046 30.4869 39.0022C31.3283 38.9584 32.1474 38.7167 32.8778 38.2968L36.8589 35.7128C37.5388 35.2111 38.0921 34.5577 38.475 33.8046C38.858 33.0515 39.06 32.2194 39.0648 31.3745L38.8127 26.6476C38.7164 25.8209 38.4302 25.0275 37.9765 24.3296C37.5227 23.6317 36.9138 23.0482 36.1972 22.6245Z" fill="url(#paint0_linear_140_2)"/>
<path d="M49.1598 42.6037L44.9581 40.5028C44.1862 40.1609 43.3447 40.0057 42.5016 40.0495C41.6585 40.0933 40.8375 40.3349 40.1052 40.7549L36.1347 43.339C35.4538 43.8372 34.8995 44.4885 34.5164 45.2401C34.1332 45.9918 33.932 46.823 33.9287 47.6667L34.1809 52.4041C34.2814 53.2282 34.5707 54.018 35.0262 54.712C35.4815 55.4061 36.091 55.9858 36.807 56.4062L41.0087 58.507C41.782 58.8448 42.6236 58.997 43.4662 58.9514C44.3089 58.9058 45.1291 58.6637 45.8616 58.2444L49.8426 55.6604C50.5227 55.1621 51.0759 54.5106 51.4573 53.7587C51.8387 53.0068 52.0376 52.1757 52.0381 51.3327L51.8174 46.6793C51.7267 45.8387 51.4388 45.0313 50.9769 44.323C50.5152 43.6148 49.8925 43.0256 49.1598 42.6037Z" fill="#006370"/>
<path d="M18.2038 30.8386L18.0042 27.1516C18.009 26.3082 18.211 25.4776 18.5941 24.7263C18.9771 23.9748 19.5305 23.3233 20.2101 22.8239L27.9517 17.7923C28.6821 17.3732 29.5007 17.1311 30.3417 17.0855C31.1827 17.0399 32.0226 17.1921 32.7941 17.5297L36.0924 19.2104C36.8644 19.5522 37.7059 19.7076 38.549 19.6638C39.3921 19.62 40.213 19.3783 40.9454 18.9583L44.916 16.3638C45.5974 15.8661 46.1521 15.215 46.5353 14.4631C46.9185 13.7114 47.1194 12.8799 47.1218 12.036L46.8697 7.30915C46.7794 6.46976 46.4926 5.66335 46.0328 4.95537C45.5729 4.24728 44.9528 3.65747 44.2227 3.23352L40.021 1.08016C39.2477 0.742447 38.4061 0.590241 37.5633 0.635829C36.7207 0.681417 35.9004 0.923539 35.1681 1.34276L31.1134 3.88478C30.4333 4.3831 29.8801 5.03457 29.4987 5.78646C29.1173 6.53835 28.9184 7.36944 28.9181 8.21251L29.1071 11.8995C29.1068 12.7427 28.9078 13.5737 28.5264 14.3256C28.145 15.0775 27.5918 15.729 26.9118 16.2272L19.1702 21.2587C18.4378 21.6787 17.6169 21.9204 16.7738 21.9642C15.9307 22.008 15.0892 21.8526 14.3172 21.5108L11.0294 19.8407C10.2575 19.4989 9.41597 19.3436 8.57279 19.3874C7.72973 19.4312 6.90882 19.6728 6.17647 20.0928L2.20588 22.6768C1.52384 23.174 0.968698 23.8249 0.5854 24.5769C0.202101 25.3289 0.00157563 26.1606 0 27.0045L0.252099 31.7419C0.341594 32.5816 0.628044 33.3883 1.08792 34.0965C1.5479 34.8047 2.16838 35.3943 2.89916 35.8175L7.10084 37.9184C7.87416 38.2562 8.71575 38.4084 9.5584 38.3628C10.401 38.3172 11.2214 38.0751 11.9538 37.6558L15.9244 35.0717C16.6067 34.5914 17.1677 33.9588 17.5634 33.2241C17.959 32.4894 18.1783 31.6727 18.2038 30.8386Z" fill="#006370"/>
<path d="M59.7896 27.2884C59.696 26.4499 59.408 25.6449 58.9485 24.9373C58.4889 24.2297 57.8705 23.6392 57.1426 23.2128L52.9409 21.112C52.1674 20.775 51.3258 20.6232 50.4833 20.6688C49.6408 20.7144 48.8205 20.9561 48.088 21.3746L44.1173 23.9586C43.4365 24.4569 42.8823 25.1081 42.4991 25.8598C42.116 26.6115 41.9146 27.4426 41.9115 28.2863L42.1111 31.9838C42.1078 32.8274 41.9066 33.6586 41.5234 34.4103C41.1403 35.162 40.586 35.8132 39.9051 36.3116L32.174 41.3326C31.4416 41.7518 30.6214 41.9939 29.7787 42.0395C28.9361 42.0851 28.0945 41.9329 27.3211 41.5952L24.0227 39.9145C23.2512 39.5768 22.4113 39.4246 21.5703 39.4702C20.7293 39.5159 19.9109 39.7579 19.1803 40.1771L15.1677 42.7506C14.4882 43.2501 13.9348 43.9015 13.5517 44.6529C13.1687 45.4043 12.9667 46.2349 12.9619 47.0784L13.2139 51.8157C13.3059 52.6533 13.5933 53.4576 14.0531 54.1637C14.513 54.8697 15.1322 55.458 15.8611 55.8809L20.0628 58.0343C20.8328 58.376 21.6726 58.5312 22.514 58.4874C23.3555 58.4436 24.1746 58.2019 24.9052 57.782L28.8862 55.198C29.5652 54.698 30.1182 54.0464 30.5011 53.2952C30.8841 52.5438 31.0864 51.7136 31.0922 50.8704L30.8926 47.1728C30.8949 46.329 31.0958 45.4976 31.479 44.7458C31.8622 43.9939 32.417 43.3429 33.0984 42.8451L40.8295 37.8137C41.5618 37.3937 42.3828 37.152 43.2259 37.1082C44.069 37.0644 44.9104 37.2196 45.6824 37.5615L48.9702 39.2317C49.7422 39.5735 50.5838 39.7288 51.4268 39.685C52.2699 39.6412 53.0908 39.3996 53.8232 38.9796L57.8043 36.3956C58.4838 35.8966 59.0365 35.2451 59.4178 34.4934C59.7992 33.7416 59.9985 32.9107 59.9996 32.0679L59.7896 27.2884Z" fill="#04A7C3"/>
<defs>
<linearGradient id="paint0_linear_140_2" x1="25.2414" y1="22.5615" x2="35.7456" y2="36.217" gradientUnits="userSpaceOnUse">
<stop stop-color="#27F3FF"/>
<stop offset="1" stop-color="#006370"/>
</linearGradient>
</defs>
</svg>
