<svg width="1139" height="410" viewBox="0 0 1139 410" fill="none" xmlns="http://www.w3.org/2000/svg">
<path d="M221 88C221 39.3989 260.399 0 309 0V0C357.601 0 397 39.3989 397 88V190H221V88Z" fill="#04A7C3"/>
<path d="M193 101C193 45.7715 237.772 1 293 1H329C384.228 1 429 45.7715 429 101V191H193V101Z" fill="#04A7C3"/>
<path d="M100 410C44.7715 410 0 365.228 0 310L0 283C0 227.772 44.7715 183 100 183H193V410H100Z" fill="#04A7C3"/>
<rect x="193" y="183" width="236" height="227" fill="#1F2B5B"/>
<path d="M257 193H365V400H257V193Z" fill="#04A7C3"/>
<path d="M207.5 350.5V242.5H414.5V350.5H207.5Z" fill="#04A7C3"/>
<path d="M625.6 223.6H596.2C592.333 223.6 589.267 223.267 587 222.6C584.867 222.067 583.267 221.2 582.2 220C581.133 218.667 580.4 217.067 580 215.2C579.733 213.333 579.6 211.133 579.6 208.6V102.2C579.6 98.3333 579.333 95.1333 578.8 92.6C578.4 89.9333 577.333 87.8667 575.6 86.4C574 84.8 571.533 83.7333 568.2 83.2C564.867 82.5333 560.333 82.2 554.6 82.2V208.8C554.6 213.467 553.067 217.133 550 219.8C546.933 222.333 543.333 223.6 539.2 223.6C535.2 223.6 531.733 222.333 528.8 219.8C526 217.267 524.6 213.6 524.6 208.8V82.2C518.867 82.2 514.333 82.5333 511 83.2C507.667 83.7333 505.133 84.8 503.4 86.4C501.8 87.8667 500.733 89.9333 500.2 92.6C499.8 95.1333 499.6 98.3333 499.6 102.2V208.8C499.6 213.467 498.067 217.133 495 219.8C492.067 222.333 488.6 223.6 484.6 223.6C480.6 223.6 477.067 222.333 474 219.8C471.067 217.267 469.6 213.6 469.6 208.8V92.2C469.6 85 471.6 79.8667 475.6 76.8C479.6 73.7333 486.4 72.2 496 72.2H589.6C592.533 72.2 595.2 72.3333 597.6 72.6C600.133 72.7333 602.267 73.4667 604 74.8C605.733 76 607.067 78 608 80.8C609.067 83.4667 609.6 87.2667 609.6 92.2V171H626.6C629.8 171 632.533 171.133 634.8 171.4C637.067 171.667 638.933 172.4 640.4 173.6C641.867 174.667 642.933 176.333 643.6 178.6C644.267 180.867 644.6 184 644.6 188V208.6C644.6 212.067 644.133 214.8 643.2 216.8C642.4 218.667 641.2 220.133 639.6 221.2C638 222.267 636 222.933 633.6 223.2C631.2 223.467 628.533 223.6 625.6 223.6ZM622.6 185C622.6 183.533 622.467 182.333 622.2 181.4C622.067 180.467 621.533 179.8 620.6 179.4C619.8 178.867 618.533 178.533 616.8 178.4C615.067 178.133 612.667 178 609.6 178V206.6C609.6 208.867 609.667 210.667 609.8 212C610.067 213.333 610.6 214.333 611.4 215C612.2 215.667 613.467 216.133 615.2 216.4C616.933 216.667 619.4 216.8 622.6 216.8V185ZM654.57 146.2V92.2C654.57 88.4667 654.637 85.3333 654.77 82.8C655.037 80.1333 655.637 78.0667 656.57 76.6C657.504 75 658.904 73.8667 660.77 73.2C662.77 72.5333 665.504 72.2 668.97 72.2H729.57C733.57 72.2 736.837 72.3333 739.37 72.6C741.904 72.7333 743.904 73.1333 745.37 73.8C746.97 74.4667 748.037 75.4667 748.57 76.8C749.104 78.1333 749.37 80 749.37 82.4V93.8C749.37 98.4667 747.904 102.133 744.97 104.8C742.037 107.333 738.57 108.6 734.57 108.6C730.437 108.6 726.904 107.333 723.97 104.8C721.037 102.267 719.57 98.5333 719.57 93.6V82.2H692.57C690.704 82.2 689.237 82.4 688.17 82.8C687.104 83.0667 686.304 83.5333 685.77 84.2C685.237 84.8667 684.904 85.6667 684.77 86.6C684.637 87.5333 684.57 88.6 684.57 89.8V143C684.57 145.933 685.304 147.933 686.77 149C688.237 149.933 690.837 150.4 694.57 150.4H727.77C730.304 150.4 732.304 150.6 733.77 151C735.37 151.4 736.57 152.133 737.37 153.2C738.17 154.267 738.704 155.8 738.97 157.8C739.237 159.667 739.37 162.067 739.37 165V209.4C739.37 213.933 737.904 217.467 734.97 220C732.037 222.533 728.57 223.8 724.57 223.8C720.437 223.8 716.837 222.533 713.77 220C710.837 217.333 709.37 213.667 709.37 209V160.4H664.37C660.504 160.4 657.904 159.4 656.57 157.4C655.237 155.4 654.57 151.667 654.57 146.2Z" fill="#04A7C3"/>
<path d="M461.4 393L506.48 292.9H541.06L586.14 393H561.78L552.26 371.86H495.28L485.76 393H461.4ZM503.4 353.66H544.14L524.68 310.4H522.86L503.4 353.66ZM594.139 393.7V375.5L674.639 375.64C678.745 375.64 681.872 374.707 684.019 372.84C686.259 370.88 687.379 367.753 687.379 363.46C687.379 359.167 686.259 356.087 684.019 354.22C681.872 352.26 678.745 351.28 674.639 351.28H624.519C614.159 351.28 606.085 348.807 600.299 343.86C594.605 338.82 591.759 331.447 591.759 321.74C591.759 312.033 594.605 304.707 600.299 299.76C606.085 294.72 614.159 292.2 624.519 292.2H703.199V310.4L626.899 310.26C622.885 310.26 619.759 311.193 617.519 313.06C615.279 314.833 614.159 317.727 614.159 321.74C614.159 325.753 615.279 328.693 617.519 330.56C619.759 332.333 622.885 333.22 626.899 333.22H677.019C687.379 333.22 695.405 335.787 701.099 340.92C706.885 345.96 709.779 353.473 709.779 363.46C709.779 373.353 706.885 380.867 701.099 386C695.405 391.133 687.379 393.7 677.019 393.7H594.139ZM720.603 393.7V375.5L801.103 375.64C805.21 375.64 808.337 374.707 810.483 372.84C812.723 370.88 813.843 367.753 813.843 363.46C813.843 359.167 812.723 356.087 810.483 354.22C808.337 352.26 805.21 351.28 801.103 351.28H750.983C740.623 351.28 732.55 348.807 726.763 343.86C721.07 338.82 718.223 331.447 718.223 321.74C718.223 312.033 721.07 304.707 726.763 299.76C732.55 294.72 740.623 292.2 750.983 292.2H829.663V310.4L753.363 310.26C749.35 310.26 746.223 311.193 743.983 313.06C741.743 314.833 740.623 317.727 740.623 321.74C740.623 325.753 741.743 328.693 743.983 330.56C746.223 332.333 749.35 333.22 753.363 333.22H803.483C813.843 333.22 821.87 335.787 827.563 340.92C833.35 345.96 836.243 353.473 836.243 363.46C836.243 373.353 833.35 380.867 827.563 386C821.87 391.133 813.843 393.7 803.483 393.7H720.603ZM850.288 393V292.9H872.688V393H850.288ZM889.041 393.7V375.5L969.541 375.64C973.648 375.64 976.774 374.707 978.921 372.84C981.161 370.88 982.281 367.753 982.281 363.46C982.281 359.167 981.161 356.087 978.921 354.22C976.774 352.26 973.648 351.28 969.541 351.28H919.421C909.061 351.28 900.988 348.807 895.201 343.86C889.508 338.82 886.661 331.447 886.661 321.74C886.661 312.033 889.508 304.707 895.201 299.76C900.988 294.72 909.061 292.2 919.421 292.2H998.101V310.4L921.801 310.26C917.788 310.26 914.661 311.193 912.421 313.06C910.181 314.833 909.061 317.727 909.061 321.74C909.061 325.753 910.181 328.693 912.421 330.56C914.661 332.333 917.788 333.22 921.801 333.22H971.921C982.281 333.22 990.308 335.787 996.001 340.92C1001.79 345.96 1004.68 353.473 1004.68 363.46C1004.68 373.353 1001.79 380.867 996.001 386C990.308 391.133 982.281 393.7 971.921 393.7H889.041ZM1015.23 343.58V292.9H1138.43V343.58H1115.75V311.1H1085.23V393H1062.83V311.1H1037.91V343.58H1015.23Z" fill="#04A7C3"/>
</svg>
