<svg width="2290" height="585" viewBox="0 0 2290 585" fill="none" xmlns="http://www.w3.org/2000/svg">
<path d="M1170 365.6C1183.33 365.867 1195.87 372.267 1207.6 384.8C1219.6 397.067 1225.6 411.733 1225.6 428.8C1225.6 444.8 1220.27 458.933 1209.6 471.2C1199.2 483.2 1186 490.133 1170 492H1106.4V277.2C1106.4 266.267 1102.53 256.933 1094.8 249.2C1087.07 241.2 1077.6 237.2 1066.4 237.2C1055.47 237.2 1046.13 241.2 1038.4 249.2C1030.67 256.933 1026.8 266.267 1026.8 277.2V492H963.2V277.2C963.2 266.267 959.333 256.933 951.6 249.2C943.867 241.2 934.4 237.2 923.2 237.2C912.267 237.2 902.933 241.2 895.2 249.2C887.467 256.933 883.6 266.267 883.6 277.2V492H820V277.2C820 248.667 830.133 224.4 850.4 204.4C870.667 184.133 894.933 174 923.2 174C950.933 174 974.8 183.6 994.8 202.8C1015.07 183.6 1038.93 174 1066.4 174C1094.93 174 1119.33 184.133 1139.6 204.4C1159.87 224.4 1170 248.667 1170 277.2V365.6ZM1162.8 445.6C1167.6 445.6 1171.73 443.867 1175.2 440.4C1178.93 436.933 1180.8 432.667 1180.8 427.6C1180.8 422.8 1178.93 418.667 1175.2 415.2C1171.73 411.467 1167.6 409.6 1162.8 409.6C1157.73 409.6 1153.47 411.467 1150 415.2C1146.53 418.667 1144.8 422.8 1144.8 427.6C1144.8 432.667 1146.53 436.933 1150 440.4C1153.47 443.867 1157.73 445.6 1162.8 445.6ZM1467.03 173.6V237.2H1307.43V315.6H1412.63V492H1349.03V372.8H1243.83V174L1467.03 173.6ZM1559.88 429.6L1731.08 430V492H1491.88V173.2H1559.48L1559.88 429.6ZM1819.25 492H1751.25V173.2H1818.85L1819.25 492ZM1957.18 236.8C1940.91 236.8 1927.31 243.067 1916.38 255.6C1905.71 268.133 1900.38 282.667 1900.38 299.2V492.4H1837.58V299.2C1837.58 265.333 1848.91 236.133 1871.58 211.6C1895.04 186.267 1923.58 173.6 1957.18 173.6C1990.78 173.6 2019.31 186.267 2042.78 211.6C2065.44 236.133 2076.78 265.333 2076.78 299.2V492.4H2013.98V299.2C2013.98 282.667 2008.51 268.133 1997.58 255.6C1986.91 243.067 1973.44 236.8 1957.18 236.8ZM2159.77 288.4L2220.17 174H2287.77L2192.57 357.6L2289.37 491.6H2221.77L2158.97 409.2L2159.77 492H2096.17V174H2159.77V288.4Z" fill="#05ADCA"/>
<path d="M300 100C300 44.7715 344.772 0 400 0H440C495.228 0 540 44.7715 540 100V263H300V100Z" fill="#05ADCA"/>
<path d="M262 101C262 45.7715 306.772 1 362 1H484C539.228 1 584 45.7715 584 101V265H262V101Z" fill="#05ADCA"/>
<path d="M100 570C44.7715 570 0 525.228 0 470L0 354C0 298.772 44.7715 254 100 254H262V570H100Z" fill="#05ADCA"/>
<rect x="262" y="254" width="322" height="316" fill="#152545"/>
<g filter="url(#filter0_di_0_1)">
<ellipse cx="418.808" cy="412.106" rx="144.147" ry="141.532" fill="#05ADCA"/>
</g>
<rect x="387.471" y="332.111" width="62.6706" height="159.99" rx="1.057" fill="white"/>
<rect x="500.283" y="381.339" width="61.5355" height="162.949" rx="1.057" transform="rotate(90 500.283 381.339)" fill="white"/>
<defs>
<filter id="filter0_di_0_1" x="248.999" y="250.315" width="339.617" height="334.387" filterUnits="userSpaceOnUse" color-interpolation-filters="sRGB">
<feFlood flood-opacity="0" result="BackgroundImageFix"/>
<feColorMatrix in="SourceAlpha" type="matrix" values="0 0 0 0 0 0 0 0 0 0 0 0 0 0 0 0 0 0 127 0" result="hardAlpha"/>
<feOffset dy="5.40245"/>
<feGaussianBlur stdDeviation="12.8308"/>
<feComposite in2="hardAlpha" operator="out"/>
<feColorMatrix type="matrix" values="0 0 0 0 0.0862745 0 0 0 0 0.470588 0 0 0 0 0.94902 0 0 0 0.2 0"/>
<feBlend mode="normal" in2="BackgroundImageFix" result="effect1_dropShadow_0_1"/>
<feBlend mode="normal" in="SourceGraphic" in2="effect1_dropShadow_0_1" result="shape"/>
<feColorMatrix in="SourceAlpha" type="matrix" values="0 0 0 0 0 0 0 0 0 0 0 0 0 0 0 0 0 0 127 0" result="hardAlpha"/>
<feOffset dy="5.40245"/>
<feGaussianBlur stdDeviation="2.70123"/>
<feComposite in2="hardAlpha" operator="arithmetic" k2="-1" k3="1"/>
<feColorMatrix type="matrix" values="0 0 0 0 0 0 0 0 0 0 0 0 0 0 0 0 0 0 0.12 0"/>
<feBlend mode="normal" in2="shape" result="effect2_innerShadow_0_1"/>
</filter>
</defs>
</svg>
