<svg width="78" height="78" viewBox="0 0 78 78" fill="none" xmlns="http://www.w3.org/2000/svg">
<g clip-path="url(#clip0_490_40)">
<path d="M39 78C60.5391 78 78 60.5391 78 39C78 17.4609 60.5391 0 39 0C17.4609 0 0 17.4609 0 39C0 60.5391 17.4609 78 39 78Z" fill="url(#paint0_linear_490_40)"/>
<path d="M38.5 51.1562C44.7132 51.1562 49.75 46.1195 49.75 39.9062V37.0938M38.5 51.1562C32.2868 51.1562 27.25 46.1195 27.25 39.9062V37.0938M38.5 51.1562V58.1875M31.4688 58.1875H45.5312M38.5 45.5312C35.3934 45.5312 32.875 43.0129 32.875 39.9062V24.4375C32.875 21.3309 35.3934 18.8125 38.5 18.8125C41.6066 18.8125 44.125 21.3309 44.125 24.4375V39.9063C44.125 43.0129 41.6066 45.5312 38.5 45.5312Z" stroke="white" stroke-width="2" stroke-linecap="round" stroke-linejoin="round"/>
</g>
<defs>
<linearGradient id="paint0_linear_490_40" x1="-6.07186" y1="-30.5882" x2="171.205" y2="-11.5153" gradientUnits="userSpaceOnUse">
<stop stop-color="#3A8EF6"/>
<stop offset="1" stop-color="#05ADCA"/>
</linearGradient>
<clipPath id="clip0_490_40">
<rect width="78" height="78" fill="white"/>
</clipPath>
</defs>
</svg>
